<svg xmlns="http://www.w3.org/2000/svg" width="212.986" height="50.417" viewBox="0 0 212.986 50.417"><path fill="#00A099" d="M11.74 40.917c-.395 0-.748-.208-.935-.54l-4.865-8.42c-.083-.166-.146-.333-.146-.52-.333.042-.624.23-.79.52L.14 40.377c-.187.332-.187.747 0 1.08l4.864 8.42c.187.332.54.54.935.54h9.728c.395 0 .748-.21.935-.54l4.864-8.42c.125-.208.146-.437.125-.665-.146.083-.312.125-.478.125H11.74z"/><path fill="#C6C6C5" d="M10.804 22.457c.187-.333.54-.54.935-.54h9.374c.166 0 .333.042.478.125.02-.23-.02-.457-.125-.665l-4.864-8.42c-.187-.332-.54-.54-.935-.54H5.96c-.394 0-.747.21-.934.54l-4.864 8.42c-.187.333-.187.748 0 1.08l4.864 8.42c.166.29.457.478.79.52 0-.187.042-.353.146-.52l4.842-8.42z"/><path fill="#1E383F" d="M26.915 30.876l-4.864-8.42c-.103-.186-.27-.332-.456-.415-.02.147-.062.292-.125.417l-4.865 8.42c-.187.332-.54.54-.935.54.395 0 .748.207.935.54l4.864 8.418c.082.125.103.27.124.416.187-.082.353-.228.457-.415l4.865-8.42c.187-.33.187-.746 0-1.08z"/><path fill="#002628" d="M16.604 31.957c-.187-.333-.54-.54-.935-.54H5.96c-.06 0-.103.02-.145.02 0 .188.042.354.146.52l4.865 8.42c.187.333.54.54.935.54h9.354c.166 0 .333-.042.478-.125-.02-.146-.062-.29-.125-.416l-4.863-8.42z"/><path fill="#2A3C42" d="M15.67 31.417c.394 0 .747-.208.934-.54l4.864-8.42c.083-.124.104-.27.125-.415-.146-.083-.312-.125-.478-.125H11.74c-.395 0-.748.208-.935.54l-4.865 8.42c-.083.165-.146.332-.146.52.042 0 .104.02.146.02h9.73z"/><path fill="#00A099" d="M38.806 27.072v2.952h5.363v2.848h-5.364v6.112h-3.66V24.14h9.272v2.91h-5.613v.022zM54.292 38.983l-1.476-3.264c-.187-.396-.603-1.456-1.08-1.934-.396-.395-.895-.374-1.394-.374h-.208v5.57h-3.596v-14.84h4.033c1.913 0 3.805-.126 5.302 1.35.644.644 1.226 1.6 1.226 2.91 0 2.016-1.268 3.555-3.867 3.825.895.042 1.498.353 1.976.852.665.664 1.04 1.62 1.518 2.64L58.2 38.96h-3.908v.02zM53.15 27.467c-.458-.457-1.165-.52-2.163-.52h-.873v3.72h1.04c.872 0 2.43-.04 2.43-1.932.022-.416-.102-.935-.435-1.268zM59.697 38.983V24.14h9.396v2.91h-5.737v2.953h5.384v2.848h-5.384v3.16h5.925v2.974h-9.583zM71.318 38.983V24.14h9.396v2.91h-5.758v2.953h5.384v2.848h-5.384v3.16h5.925v2.974H71.32z"/><path fill="#fff" d="M83.998 25.845c0-.312-.166-.457-.457-.457h-.914v-1.31h1.58c.915 0 1.29.374 1.29 1.29v8.44c0 2.473 1.58 4.032 4.01 4.032 2.433 0 4.034-1.56 4.034-4.074v-8.398c0-.915.374-1.29 1.29-1.29h1.58v1.31h-.916c-.29 0-.457.147-.457.458v8.024c0 3.222-2.203 5.363-5.488 5.363s-5.53-2.14-5.53-5.363v-8.024h-.022zM98.965 25.845c0-.312-.166-.457-.457-.457h-.915v-1.31h1.58c.915 0 1.29.374 1.29 1.29v5.175h1.787c.56 0 .998-.104 1.247-.54l3.617-5.945h1.705l-3.847 6.257c-.374.624-.77.832-.77.832v.042s.354.124.73.85l2.597 5.136c.208.437.54.478 1.08.478h.417v1.31h-.79c-1.206 0-1.58-.125-2.058-1.123l-2.724-5.445c-.23-.478-.728-.56-1.35-.56h-1.643v7.15h-1.476v-13.14h-.022zM117.446 23.808c3.45 0 5.218 1.83 5.218 1.83l-.873 1.1s-1.662-1.537-4.323-1.537c-3.347 0-5.925 2.703-5.925 6.28 0 3.678 2.536 6.34 5.904 6.34 2.952 0 4.72-2.184 4.72-2.184v-1.85c0-.312-.167-.457-.458-.457h-.915v-1.31h1.476c.914 0 1.288.373 1.288 1.288v5.675h-1.35V37.86c0-.312.02-.644.02-.644h-.042s-1.746 2.016-4.885 2.016c-4.073 0-7.295-3.264-7.295-7.754-.022-4.26 3.22-7.67 7.44-7.67zM130.542 28.05c2.952 0 4.47 2.265 4.47 4.926 0 .25-.043.728-.043.728h-8.19c.04 2.702 1.932 4.24 4.136 4.24 1.954 0 3.2-1.31 3.2-1.31l.708 1.082s-1.56 1.538-3.97 1.538c-3.16 0-5.592-2.287-5.592-5.592.02-3.493 2.41-5.613 5.28-5.613zm2.993 4.51c-.083-2.204-1.434-3.284-3.014-3.284-1.766 0-3.304 1.143-3.678 3.284h6.693zM137.9 30.024c0-.29-.165-.457-.456-.457h-.894V28.32h1.476c.894 0 1.29.374 1.29 1.185v.478c0 .416-.043.77-.043.77h.042c.374-.978 1.746-2.703 4.24-2.703 2.662 0 3.597 1.518 3.597 4.137v5.072c0 .31.166.456.457.456h.893v1.247h-1.518c-.915 0-1.29-.374-1.29-1.29V32.56c0-1.684-.248-3.16-2.306-3.16-1.83 0-3.39 1.247-3.888 3.014-.125.437-.166.935-.166 1.434v5.135h-1.434v-8.96zM154.656 28.05c2.952 0 4.47 2.265 4.47 4.926 0 .25-.043.728-.043.728h-8.19c.042 2.702 1.933 4.24 4.137 4.24 1.954 0 3.2-1.31 3.2-1.31l.708 1.082s-1.56 1.538-3.97 1.538c-3.16 0-5.592-2.287-5.592-5.592.02-3.493 2.41-5.613 5.28-5.613zm2.993 4.51c-.084-2.204-1.435-3.284-3.015-3.284-1.767 0-3.305 1.143-3.68 3.284h6.694zM167.128 32.414h.603v-.124c0-2.224-.81-3.014-2.764-3.014-.54 0-2.08.146-2.08.935v.666h-1.37v-1.02c0-1.475 2.556-1.808 3.47-1.808 3.37 0 4.18 1.81 4.18 4.095v5.114c0 .312.165.457.456.457h.894v1.247h-1.455c-.914 0-1.267-.394-1.267-1.267 0-.457.02-.79.02-.79h-.04c.02 0-.874 2.307-3.556 2.307-1.788 0-3.638-1.04-3.638-3.16.02-3.51 4.72-3.636 6.548-3.636zm-2.66 5.592c2.036 0 3.263-2.12 3.263-3.97v-.478h-.623c-1.684 0-5.03.042-5.03 2.432 0 .998.79 2.016 2.39 2.016zM173.24 25.783c0-.29-.166-.457-.457-.457h-.894V24.08h1.517c.915 0 1.29.373 1.29 1.288v11.91c0 .313.165.458.456.458h.894v1.247h-1.518c-.916 0-1.29-.374-1.29-1.29v-11.91zM183.072 28.05c3.118 0 5.654 2.37 5.654 5.55 0 3.22-2.536 5.653-5.633 5.653-3.118 0-5.654-2.41-5.654-5.654.02-3.16 2.535-5.55 5.632-5.55zm.02 9.894c2.267 0 4.138-1.87 4.138-4.345 0-2.412-1.87-4.22-4.137-4.22-2.287 0-4.158 1.808-4.158 4.22 0 2.473 1.872 4.344 4.158 4.344zM194.672 28.05c2.87 0 3.555 1.828 3.555 1.828h.042s0-.187 0-.395c0-.77.332-1.164 1.205-1.164h1.476v1.246h-.872c-.29 0-.457.146-.457.457v8.71c0 3.388-2.514 4.72-5.134 4.72-1.206 0-2.432-.313-3.472-.853l.56-1.206s1.31.748 2.89.748c2.08 0 3.743-.977 3.743-3.347v-.935c0-.395.02-.77.02-.77h-.04c-.645 1.165-1.706 1.85-3.348 1.85-2.87 0-4.76-2.265-4.76-5.466s1.723-5.425 4.592-5.425zm3.513 5.404c0-3.118-1.476-4.074-3.368-4.074-2.08 0-3.284 1.518-3.284 4.054 0 2.557 1.372 4.2 3.472 4.2 1.704-.002 3.18-1.04 3.18-4.18zM204.318 42.164c.935 0 1.58-.77 1.975-1.746l.644-1.455-3.783-8.918c-.166-.374-.353-.478-.748-.478h-.208V28.32h.665c.956 0 1.247.208 1.642 1.164l2.744 6.673c.207.54.373 1.143.373 1.143h.042s.146-.624.353-1.143l2.64-6.673c.353-.956.686-1.164 1.663-1.164h.666v1.247h-.208c-.374 0-.603.104-.748.478l-4.615 11.163c-.56 1.35-1.642 2.224-3.056 2.224-1.477 0-2.308-1.04-2.308-1.04l.686-1.06c-.02.042.665.832 1.58.832z"/><g fill="#eee"><path d="M42.14 10.1l-.853-2.438h-3.853L36.58 10.1h-1.262l3.39-9.343h1.33l3.42 9.343H42.14zm-2.787-8.013l-1.57 4.553h3.152l-1.582-4.553zM50.567 10.254c-.868 0-1.4-.364-1.47-.406v3.25h-1.19V3.32h1.063v.504c.1-.084.757-.687 1.905-.687 1.807 0 2.997 1.415 2.997 3.46 0 2.186-1.428 3.657-3.305 3.657zm.098-6.108c-.925 0-1.527.56-1.57.588v4.063c.113.084.575.448 1.36.448 1.303 0 2.213-.994 2.213-2.647 0-1.485-.854-2.452-2.003-2.452zM59.093 4.217c-.084-.015-.294-.042-.505-.042-1.33 0-1.89.966-2.003 1.106v4.82h-1.19V3.32h1.064v.882c.07-.084.81-1.064 2.185-1.064.504 0 .687.112.73.126l-.282.953zM62.87 10.254c-1.892 0-3.152-1.4-3.152-3.544 0-2.13 1.275-3.572 3.25-3.572 1.892 0 3.138 1.4 3.138 3.572 0 2.13-1.275 3.544-3.236 3.544zm.028-6.136c-1.218 0-1.988 1.022-1.988 2.55 0 1.555.868 2.59 2.03 2.59 1.26 0 1.976-.993 1.976-2.534 0-1.555-.855-2.606-2.018-2.606zM68.202 12.747c-.392.393-1.01.56-1.568.56-.59 0-1.022-.21-1.107-.25l.295-.884c.126.042.378.14.7.14.504 0 .7-.195.798-.294.238-.24.31-.617.31-1.178V3.32h1.19v7.41c0 .924-.113 1.513-.618 2.017zm.014-10.855c-.405 0-.728-.322-.728-.73s.322-.728.728-.728c.406 0 .73.322.73.73s-.324.728-.73.728zM76.242 7.032h-4.72c-.016 1.162.657 2.213 2.128 2.213 1.064 0 1.793-.462 1.92-.532l.447.812c-.112.084-1.036.73-2.465.73-2.06 0-3.223-1.486-3.223-3.503 0-2.157 1.26-3.614 3.15-3.614 1.71 0 2.788 1.26 2.788 3.39.002.14-.026.378-.026.504zm-2.746-2.94c-1.064 0-1.863.783-1.96 2.002h3.585c0-.785-.363-2.003-1.624-2.003zM80.734 10.254c-1.947 0-3.292-1.36-3.292-3.432 0-2.157 1.443-3.685 3.446-3.685 1.274 0 2.087.645 2.157.73l-.504.77c-.126-.084-.714-.49-1.624-.49-1.387 0-2.27 1.177-2.27 2.563 0 1.5.868 2.507 2.2 2.507 1.02 0 1.75-.504 1.806-.532l.49.812c-.04.057-1.007.757-2.408.757zM87.258 10.268c-.616 0-1.163-.154-1.527-.52-.49-.49-.447-1.175-.447-1.987V4.3h-1.19v-.98h1.19V1.415h1.19V3.32h2.088v.98h-2.086v3.655c0 .687.027 1.29.994 1.29.546 0 .883-.17.938-.183l.31.84c-.085.043-.617.366-1.458.366zM95.755 10.268c-1.232 0-2.24-.406-2.48-.49V0h1.19v3.698c.07-.056.758-.56 1.81-.56 1.75 0 2.968 1.344 2.968 3.445 0 2.186-1.415 3.685-3.488 3.685zm.322-6.122c-.896 0-1.513.504-1.61.574v4.328c.125.042.49.21 1.26.21 1.4 0 2.312-1.05 2.312-2.66-.002-1.527-.828-2.452-1.963-2.452zM103.987 10.436c-.462 1.205-.784 1.78-1.232 2.228-.364.364-.98.645-1.765.645-.785 0-1.303-.28-1.373-.31l.336-.896c.098.028.448.196.98.196.435 0 .8-.14 1.05-.393.394-.392.617-.98.897-1.694l-2.815-6.892h1.288l2.157 5.49 1.962-5.49h1.204l-2.69 7.116z"/></g></svg>