<svg xmlns="http://www.w3.org/2000/svg" width="212.986" height="48.737" viewBox="0 0 212.986 48.737"><g fill="#aaa"><path d="M40.934 10.07L39.897 7.2h-4.23l-1.036 2.87h-.602L37.432.728h.742l3.432 9.344h-.672zM37.782 1.36L35.877 6.64H39.7l-1.918-5.282zM48.38 10.197c-.897 0-1.486-.364-1.626-.462v3.306h-.574V3.39h.574v.532c.098-.084.826-.687 1.99-.687 1.708 0 2.884 1.33 2.884 3.348 0 2.13-1.316 3.614-3.25 3.614zm.307-6.443c-1.162 0-1.82.63-1.933.714v4.707c.098.056.714.49 1.667.49 1.584 0 2.606-1.26 2.606-3.124 0-1.624-.91-2.786-2.34-2.786zM56.485 3.81c-.112-.014-.267-.042-.574-.042-1.428 0-2.002 1.26-2.072 1.358v4.945h-.574V3.39h.574v1.022c.098-.14.73-1.205 2.1-1.205.506 0 .646.084.688.1l-.14.503zM60.026 10.226c-1.778 0-2.928-1.33-2.928-3.502 0-2.13 1.107-3.488 2.984-3.488 1.778 0 2.9 1.316 2.9 3.586 0 2.086-1.134 3.404-2.956 3.404zm.015-6.487c-1.442 0-2.34 1.19-2.34 2.97 0 1.807 1.01 2.997 2.34 2.997 1.485 0 2.34-1.148 2.34-2.94 0-1.81-1.01-3.028-2.34-3.028zM64.674 12.732c-.252.252-.7.49-1.246.49-.547 0-.84-.14-.883-.154l.14-.476c.112.042.31.126.658.126.49 0 .7-.112.938-.35.254-.253.323-.772.323-1.304V3.39h.574v7.578c0 .896-.125 1.386-.503 1.764zm.224-11.276c-.238 0-.435-.182-.435-.42s.196-.42.435-.42c.237 0 .42.182.42.42s-.182.42-.42.42zM72.32 6.766h-4.903c0 1.723.896 2.857 2.466 2.857 1.162 0 1.99-.574 1.99-.574l.278.475c-.068.07-1.007.673-2.31.673-1.892 0-3.026-1.373-3.026-3.418 0-2.186 1.163-3.544 2.998-3.544 1.43 0 2.535 1.106 2.535 3.11 0 .11-.013.265-.027.42zM69.813 3.74c-1.22 0-2.283.937-2.367 2.493h4.314c0-1.19-.59-2.494-1.947-2.494zM76.687 10.197c-1.765 0-3.082-1.205-3.082-3.306 0-2.143 1.29-3.655 3.265-3.655 1.162 0 1.85.546 1.92.616l-.296.436c-.11-.07-.658-.49-1.666-.49-1.598 0-2.62 1.232-2.62 2.97 0 1.765 1.064 2.857 2.508 2.857 1.106 0 1.793-.463 1.89-.52l.268.463c-.143.113-.997.63-2.187.63zM82.748 10.21c-.616 0-.995-.153-1.275-.433-.406-.406-.35-1.135-.35-1.793V3.88H79.96v-.49h1.163V1.484h.574V3.39h2.2v.49h-2.2v4.076c0 .994-.057 1.723 1.106 1.723.52 0 .868-.17.98-.21l.183.46c-.126.057-.49.28-1.218.28zM91.077 10.197c-1.135 0-1.975-.378-2.1-.42V0h.573v3.922c.07-.057.826-.687 1.933-.687 1.85 0 2.94 1.358 2.94 3.404.002 2.1-1.385 3.557-3.346 3.557zm.393-6.43c-1.148 0-1.85.66-1.92.716V9.4c.1.027.646.266 1.57.266 1.652 0 2.703-1.205 2.703-2.998 0-1.682-.883-2.9-2.353-2.9zM98.596 10.66c-.294.798-.603 1.484-.994 1.876-.547.547-1.19.687-1.695.687-.616 0-1.05-.168-1.106-.196l.17-.504c.097.028.392.154.924.154.448 0 .91-.154 1.22-.463.46-.462.74-1.288 1.007-1.946L95.375 3.39h.658l2.41 6.08 2.156-6.08h.63l-2.632 7.27z"/></g><path fill="#00A099" d="M11.74 39.237c-.395 0-.748-.208-.935-.54l-4.865-8.42c-.083-.166-.146-.333-.146-.52-.333.042-.624.23-.79.52L.14 38.697c-.187.332-.187.747 0 1.08l4.864 8.42c.187.332.54.54.935.54h9.728c.395 0 .748-.21.935-.54l4.864-8.42c.125-.208.146-.437.125-.665-.146.083-.312.125-.478.125H11.74z"/><path fill="#C6C6C5" d="M10.804 20.777c.187-.333.54-.54.935-.54h9.374c.166 0 .333.042.478.125.02-.23-.02-.457-.125-.665l-4.864-8.42c-.187-.332-.54-.54-.935-.54H5.96c-.394 0-.747.21-.934.54l-4.864 8.42c-.187.333-.187.748 0 1.08l4.864 8.42c.166.29.457.478.79.52 0-.187.042-.353.146-.52l4.842-8.42z"/><path fill="#364D55" d="M26.915 29.196l-4.864-8.42c-.103-.186-.27-.332-.456-.415-.02.147-.062.292-.125.417l-4.865 8.42c-.187.332-.54.54-.935.54.395 0 .748.207.935.54l4.864 8.418c.082.125.103.27.124.416.187-.082.353-.228.457-.415l4.865-8.42c.187-.33.187-.746 0-1.08z"/><path fill="#002628" d="M16.604 30.277c-.187-.333-.54-.54-.935-.54H5.96c-.06 0-.103.02-.145.02 0 .188.042.354.146.52l4.865 8.42c.187.333.54.54.935.54h9.354c.166 0 .333-.042.478-.125-.02-.146-.062-.29-.125-.416l-4.863-8.42z"/><path fill="#2A3C42" d="M15.67 29.737c.394 0 .747-.208.934-.54l4.864-8.42c.083-.124.104-.27.125-.415-.146-.083-.312-.125-.478-.125H11.74c-.395 0-.748.208-.935.54l-4.865 8.42c-.083.165-.146.332-.146.52.042 0 .104.02.146.02h9.73z"/><path fill="#00A099" d="M38.806 25.392v2.952h5.363v2.848h-5.364v6.112h-3.66V22.46h9.272v2.91h-5.613v.022zM54.292 37.303l-1.476-3.264c-.187-.396-.603-1.456-1.08-1.934-.396-.395-.895-.374-1.394-.374h-.208v5.57h-3.596v-14.84h4.033c1.913 0 3.805-.126 5.302 1.35.644.644 1.226 1.6 1.226 2.91 0 2.016-1.268 3.555-3.867 3.825.895.042 1.498.353 1.976.852.665.664 1.04 1.62 1.518 2.64L58.2 37.28h-3.908v.02zM53.15 25.787c-.458-.457-1.165-.52-2.163-.52h-.873v3.72h1.04c.872 0 2.43-.04 2.43-1.932.022-.416-.102-.935-.435-1.268zM59.697 37.303V22.46h9.396v2.91h-5.737v2.953h5.384v2.848h-5.384v3.16h5.925v2.974h-9.583zM71.318 37.303V22.46h9.396v2.91h-5.758v2.953h5.384v2.848h-5.384v3.16h5.925v2.974H71.32z"/><path fill="#364D55" d="M83.998 24.166c0-.312-.166-.457-.457-.457h-.914V22.4h1.58c.915 0 1.29.373 1.29 1.288v8.44c0 2.474 1.58 4.033 4.01 4.033s4.034-1.558 4.034-4.073V23.69c0-.916.374-1.29 1.29-1.29h1.58v1.31h-.916c-.29 0-.457.146-.457.457v8.024c0 3.223-2.204 5.364-5.488 5.364s-5.53-2.14-5.53-5.363v-8.023h-.022zM98.965 24.166c0-.312-.166-.457-.457-.457h-.915V22.4h1.58c.915 0 1.29.373 1.29 1.288v5.176h1.787c.56 0 .998-.104 1.247-.54l3.617-5.945h1.705l-3.847 6.256c-.374.624-.77.832-.77.832v.042s.354.125.73.852l2.597 5.135c.208.437.54.478 1.08.478h.417v1.31h-.79c-1.206 0-1.58-.125-2.058-1.123l-2.724-5.446c-.23-.478-.728-.56-1.35-.56h-1.643v7.15h-1.476v-13.14h-.022zM117.446 22.128c3.45 0 5.218 1.83 5.218 1.83l-.873 1.1s-1.662-1.537-4.323-1.537c-3.347 0-5.925 2.703-5.925 6.28 0 3.678 2.536 6.34 5.904 6.34 2.952 0 4.72-2.184 4.72-2.184v-1.85c0-.312-.167-.457-.458-.457h-.915v-1.31h1.476c.914 0 1.288.373 1.288 1.288v5.675h-1.35V36.18c0-.312.02-.644.02-.644h-.042s-1.746 2.016-4.885 2.016c-4.073 0-7.295-3.264-7.295-7.754-.022-4.26 3.22-7.67 7.44-7.67zM130.542 26.37c2.952 0 4.47 2.265 4.47 4.926 0 .25-.043.728-.043.728h-8.19c.04 2.702 1.932 4.24 4.136 4.24 1.954 0 3.2-1.31 3.2-1.31l.708 1.082s-1.56 1.538-3.97 1.538c-3.16 0-5.592-2.287-5.592-5.592.02-3.493 2.41-5.613 5.28-5.613zm2.993 4.51c-.083-2.204-1.434-3.284-3.014-3.284-1.766 0-3.304 1.143-3.678 3.284h6.693zM137.9 28.344c0-.29-.165-.457-.456-.457h-.894V26.64h1.476c.894 0 1.29.374 1.29 1.185v.478c0 .416-.043.77-.043.77h.042c.374-.978 1.746-2.703 4.24-2.703 2.662 0 3.597 1.518 3.597 4.137v5.072c0 .31.166.456.457.456h.893v1.247h-1.518c-.915 0-1.29-.374-1.29-1.29V30.88c0-1.684-.248-3.16-2.306-3.16-1.83 0-3.39 1.247-3.888 3.014-.125.437-.166.935-.166 1.434v5.135h-1.434v-8.96zM154.656 26.37c2.952 0 4.47 2.265 4.47 4.926 0 .25-.043.728-.043.728h-8.19c.042 2.702 1.933 4.24 4.137 4.24 1.954 0 3.2-1.31 3.2-1.31l.708 1.082s-1.56 1.538-3.97 1.538c-3.16 0-5.592-2.287-5.592-5.592.02-3.493 2.41-5.613 5.28-5.613zm2.993 4.51c-.084-2.204-1.435-3.284-3.015-3.284-1.767 0-3.305 1.143-3.68 3.284h6.694zM167.128 30.734h.603v-.124c0-2.224-.81-3.014-2.764-3.014-.54 0-2.08.146-2.08.935v.666h-1.37v-1.02c0-1.475 2.556-1.808 3.47-1.808 3.37 0 4.18 1.81 4.18 4.095v5.114c0 .312.165.457.456.457h.894v1.247h-1.455c-.914 0-1.267-.394-1.267-1.267 0-.457.02-.79.02-.79h-.04c.02 0-.874 2.307-3.556 2.307-1.788 0-3.638-1.04-3.638-3.16.02-3.51 4.72-3.636 6.548-3.636zm-2.66 5.592c2.036 0 3.263-2.12 3.263-3.97v-.478h-.623c-1.684 0-5.03.042-5.03 2.432 0 .998.79 2.016 2.39 2.016zM173.24 24.103c0-.29-.166-.457-.457-.457h-.894V22.4h1.517c.915 0 1.29.373 1.29 1.288v11.91c0 .313.165.458.456.458h.894v1.247h-1.518c-.916 0-1.29-.374-1.29-1.29v-11.91zM183.072 26.37c3.118 0 5.654 2.37 5.654 5.55 0 3.22-2.536 5.653-5.633 5.653-3.118 0-5.654-2.41-5.654-5.654.02-3.16 2.535-5.55 5.632-5.55zm.02 9.894c2.267 0 4.138-1.87 4.138-4.345 0-2.412-1.87-4.22-4.137-4.22-2.287 0-4.158 1.808-4.158 4.22 0 2.473 1.872 4.344 4.158 4.344zM194.672 26.37c2.87 0 3.555 1.828 3.555 1.828h.042s0-.187 0-.395c0-.77.332-1.164 1.205-1.164h1.476v1.246h-.872c-.29 0-.457.146-.457.457v8.71c0 3.388-2.514 4.72-5.134 4.72-1.206 0-2.432-.313-3.472-.853l.56-1.206s1.31.748 2.89.748c2.08 0 3.742-.977 3.742-3.347v-.935c0-.395.02-.77.02-.77h-.04c-.645 1.165-1.706 1.85-3.348 1.85-2.87 0-4.76-2.265-4.76-5.466s1.725-5.425 4.594-5.425zm3.513 5.404c0-3.118-1.476-4.074-3.368-4.074-2.08 0-3.284 1.518-3.284 4.054 0 2.557 1.372 4.2 3.472 4.2 1.704-.002 3.18-1.04 3.18-4.18zM204.318 40.484c.935 0 1.58-.77 1.975-1.746l.644-1.455-3.783-8.918c-.166-.374-.353-.478-.748-.478h-.208V26.64h.665c.956 0 1.247.208 1.642 1.164l2.744 6.673c.207.54.373 1.143.373 1.143h.042s.146-.624.353-1.143l2.64-6.673c.353-.956.686-1.164 1.663-1.164h.666v1.247h-.208c-.374 0-.603.104-.748.478l-4.615 11.163c-.56 1.35-1.642 2.224-3.056 2.224-1.477 0-2.308-1.04-2.308-1.04l.686-1.06c-.02.042.665.832 1.58.832z"/></svg>