<svg xmlns="http://www.w3.org/2000/svg" width="270.221" height="87" viewBox="0 0 270.221 87"><path fill="#00A099" d="M26.878 65.25c-.904 0-1.713-.476-2.142-1.237L13.6 44.737c-.19-.38-.333-.76-.333-1.19-.76.095-1.428.524-1.81 1.19L.322 64.013c-.427.76-.427 1.713 0 2.475L11.46 85.763c.428.76 1.237 1.237 2.142 1.237h22.274c.904 0 1.713-.476 2.142-1.237l11.137-19.275c.286-.476.333-1 .286-1.523-.334.19-.715.286-1.096.286H26.878z"/><path fill="#A3897A" d="M24.736 22.987c.428-.76 1.237-1.237 2.142-1.237h21.464c.38 0 .76.095 1.095.286.048-.524-.048-1.047-.286-1.523L38.016 1.237C37.587.477 36.777 0 35.873 0H13.647c-.904 0-1.713.476-2.142 1.237L.37 20.513c-.43.76-.43 1.713 0 2.475l11.136 19.275c.38.666 1.047 1.095 1.81 1.19 0-.428.094-.81.332-1.19l11.088-19.276z"/><path fill="#364D55" d="M61.62 42.263L50.485 22.987c-.238-.428-.62-.76-1.047-.952-.048.333-.143.666-.286.952L38.016 42.263c-.428.76-1.237 1.237-2.142 1.237.904 0 1.713.476 2.142 1.237l11.137 19.275c.19.286.238.62.286.952.428-.19.81-.524 1.047-.952l11.137-19.275c.427-.76.427-1.713 0-2.474z"/><path fill="#003033" d="M38.015 44.737c-.428-.76-1.237-1.237-2.142-1.237H13.647c-.143 0-.238.048-.333.048 0 .428.095.81.333 1.19l11.137 19.275c.428.76 1.237 1.237 2.142 1.237h21.417c.38 0 .76-.095 1.095-.286-.048-.333-.143-.666-.286-.952L38.015 44.737z"/><path fill="#232929" d="M35.873 43.5c.904 0 1.713-.476 2.142-1.237l11.137-19.275c.19-.286.238-.62.286-.952-.333-.19-.714-.286-1.095-.286H26.878c-.904 0-1.713.476-2.142 1.237L13.6 42.263c-.19.38-.333.76-.333 1.19.095 0 .238.048.333.048h22.273z"/><path fill="#A3897A" d="M88.844 33.553v6.758h12.28v6.52h-12.28v13.993h-8.376v-33.98h21.226v6.662h-12.85v.048zM124.3 60.824l-3.378-7.472c-.428-.904-1.38-3.332-2.475-4.426-.904-.904-2.046-.857-3.19-.857h-.475V60.87h-8.234v-34.03h9.233c4.38 0 8.71-.286 12.137 3.094 1.475 1.475 2.808 3.665 2.808 6.663 0 4.616-2.903 8.137-8.852 8.756 2.046.095 3.427.81 4.52 1.95 1.524 1.524 2.38 3.713 3.475 6.045l3.38 7.426H124.3v.048zm-2.617-26.367c-1.047-1.047-2.665-1.19-4.95-1.19h-2v8.52h2.38c2 0 5.57-.096 5.57-4.427.047-.95-.238-2.14-1-2.903zM136.675 60.824V26.842h21.512v6.663H145.05v6.758h12.328v6.52H145.05v7.234h13.565v6.758h-21.94v.05zM163.28 60.824V26.842h21.512v6.663H171.61v6.758h12.326v6.52H171.61v7.234h13.563v6.758H163.28v.05z"/><path fill="#364D55" d="M192.74 29.698h-3.14V26.7h14.467c5.76 0 9.804 3.807 9.804 9.71 0 5.282-3.235 8.423-6.614 9.137v.095s.666.38 1.19 1.38l4.902 9.71c.476.998 1.237 1.094 2.427 1.094h.666v2.998h-1.522c-2.76 0-3.617-.333-4.712-2.57l-4.902-9.757c-.904-1.81-1.57-2.047-3.474-2.047h-5.76v14.373h-3.378V29.698h.048zm10.946 13.754c4.093 0 6.615-2.665 6.615-6.95 0-4.235-2.52-6.805-6.567-6.805h-7.615V43.45h7.568zM230.576 35.79c6.758 0 10.233 5.188 10.233 11.28 0 .57-.096 1.666-.096 1.666h-18.752c.095 6.187 4.426 9.71 9.47 9.71 4.475 0 7.33-3 7.33-3l1.618 2.476s-3.57 3.522-9.09 3.522c-7.234 0-12.803-5.235-12.803-12.803.048-7.996 5.52-12.85 12.09-12.85zm6.854 10.328c-.19-5.045-3.284-7.52-6.9-7.52-4.046 0-7.568 2.618-8.425 7.52h15.325zM255.848 35.79c6.568 0 8.138 4.188 8.138 4.188h.095s0-.428 0-.904c0-1.76.762-2.665 2.76-2.665h3.38v2.855h-2c-.665 0-1.046.333-1.046 1.047v19.94c0 7.76-5.76 10.805-11.755 10.805-2.76 0-5.57-.714-7.95-1.95l1.286-2.76s2.998 1.712 6.615 1.712c4.76 0 8.568-2.238 8.568-7.663v-2.142c0-.904.048-1.76.048-1.76h-.095c-1.474 2.664-3.902 4.235-7.66 4.235-6.57 0-10.9-5.188-10.9-12.517s3.95-12.423 10.518-12.423zm8.09 12.374c0-7.14-3.378-9.328-7.71-9.328-4.758 0-7.52 3.474-7.52 9.28 0 5.855 3.142 9.615 7.95 9.615 3.854 0 7.28-2.38 7.28-9.566z"/></svg>