<svg xmlns="http://www.w3.org/2000/svg" width="289.972" height="87" viewBox="0 0 289.972 87"><path fill="#00A099" d="M26.878 65.25c-.904 0-1.713-.476-2.142-1.237L13.6 44.737c-.19-.38-.333-.76-.333-1.19-.76.095-1.428.524-1.81 1.19L.322 64.013c-.427.76-.427 1.713 0 2.475L11.46 85.763c.428.76 1.237 1.237 2.142 1.237h22.274c.904 0 1.713-.476 2.142-1.237l11.137-19.275c.286-.476.333-1 .286-1.523-.334.19-.715.286-1.096.286H26.878z"/><path fill="#A2195B" d="M24.736 22.987c.428-.76 1.237-1.237 2.142-1.237h21.464c.38 0 .76.095 1.095.286.048-.524-.048-1.047-.286-1.523L38.016 1.237C37.587.477 36.777 0 35.873 0H13.647c-.904 0-1.713.476-2.142 1.237L.37 20.513c-.43.76-.43 1.713 0 2.475l11.136 19.275c.38.666 1.047 1.095 1.81 1.19 0-.428.094-.81.332-1.19l11.088-19.276z"/><path fill="#364D55" d="M61.62 42.263L50.485 22.987c-.238-.428-.62-.76-1.047-.952-.048.333-.143.666-.286.952L38.016 42.263c-.428.76-1.237 1.237-2.142 1.237.904 0 1.713.476 2.142 1.237l11.137 19.275c.19.286.238.62.286.952.428-.19.81-.524 1.047-.952l11.137-19.275c.427-.76.427-1.713 0-2.474z"/><path fill="#003033" d="M38.015 44.737c-.428-.76-1.237-1.237-2.142-1.237H13.647c-.143 0-.238.048-.333.048 0 .428.095.81.333 1.19l11.137 19.275c.428.76 1.237 1.237 2.142 1.237h21.417c.38 0 .76-.095 1.095-.286-.048-.333-.143-.666-.286-.952L38.015 44.737z"/><path fill="#22081E" d="M35.873 43.5c.904 0 1.713-.476 2.142-1.237l11.137-19.275c.19-.286.238-.62.286-.952-.333-.19-.714-.286-1.095-.286H26.878c-.904 0-1.713.476-2.142 1.237L13.6 42.263c-.19.38-.333.76-.333 1.19.095 0 .238.048.333.048h22.273z"/><path fill="#A2195B" d="M88.844 33.553v6.758h12.28v6.52h-12.28v13.993h-8.376v-33.98h21.226v6.662h-12.85v.048zM124.3 60.824l-3.378-7.472c-.428-.904-1.38-3.332-2.475-4.426-.904-.904-2.046-.857-3.19-.857h-.475V60.87h-8.234v-34.03h9.233c4.38 0 8.71-.286 12.137 3.094 1.475 1.475 2.808 3.665 2.808 6.663 0 4.616-2.903 8.137-8.852 8.756 2.046.095 3.427.81 4.52 1.95 1.524 1.524 2.38 3.713 3.475 6.045l3.38 7.426H124.3v.048zm-2.617-26.367c-1.047-1.047-2.665-1.19-4.95-1.19h-2v8.52h2.38c2 0 5.57-.096 5.57-4.427.047-.95-.238-2.14-1-2.903zM136.675 60.824V26.842h21.512v6.663H145.05v6.758h12.328v6.52H145.05v7.234h13.565v6.758h-21.94v.05zM163.28 60.824V26.842h21.512v6.663H171.61v6.758h12.326v6.52H171.61v7.234h13.563v6.758H163.28v.05z"/><path fill="#364D55" d="M192.645 29.698h-3.14V26.7h14.467c5.33 0 9.233 3.236 9.233 8.614 0 3.76-1.904 6.235-4.38 7.425v.094c3.523.952 5.76 4.33 5.76 8.472 0 6.092-4.474 9.566-10.185 9.566h-8.805c-2.094 0-2.95-.857-2.95-2.95V29.697zm11.28 11.803c3.473 0 5.805-2.426 5.805-5.996 0-3.522-2.237-5.854-5.854-5.854h-7.853v11.803h7.9v.048zm-6.854 16.325h7.283c4.14 0 6.663-2.57 6.663-6.663s-2.713-6.758-6.71-6.758h-8.33V56.73c.048.762.428 1.095 1.095 1.095zM217.06 57.825h1.81c.665 0 .998-.333 1.046-1.047l2.38-30.08h3.474l9.043 19.895c.81 1.76 1.713 4.045 1.713 4.045h.095s.858-2.284 1.667-4.045l8.995-19.894h3.474l2.38 30.078c.048.714.38 1.047 1.047 1.047h1.856v2.998h-3.285c-2.094 0-2.808-.857-2.95-2.95l-1.62-20.752c-.142-1.855-.142-4.758-.142-4.758h-.095s-.904 2.998-1.76 4.76l-8.14 17.37h-3.045l-8.09-17.37c-.762-1.714-1.81-4.855-1.81-4.855h-.095s0 2.998-.143 4.854l-1.618 20.752c-.143 2.094-.857 2.95-2.95 2.95h-3.237v-2.997zM262.273 29.698h-3.14V26.7h13.706c10.28 0 17.132 6.282 17.132 17.038 0 10.9-6.853 17.086-17.133 17.086h-7.568c-2.094 0-2.95-.857-2.95-2.95V29.697h-.05zm4.474 28.127h5.76c8.423 0 13.944-4.95 13.944-14.088 0-9.09-5.567-14.04-13.944-14.04H265.7v27.08c-.048.715.38 1.048 1.047 1.048z"/></svg>