<svg xmlns="http://www.w3.org/2000/svg" width="276.408" height="87" viewBox="0 0 276.408 87"><path fill="#00A099" d="M26.878 65.25c-.904 0-1.713-.476-2.142-1.237L13.6 44.737c-.19-.38-.333-.76-.333-1.19-.76.095-1.428.524-1.81 1.19L.322 64.013c-.427.76-.427 1.713 0 2.475L11.46 85.763c.428.76 1.237 1.237 2.142 1.237h22.274c.904 0 1.713-.476 2.142-1.237l11.137-19.275c.286-.476.333-1 .286-1.523-.334.19-.715.286-1.096.286H26.878z"/><path fill="#F29100" d="M24.736 22.987c.428-.76 1.237-1.237 2.142-1.237h21.464c.38 0 .76.095 1.095.286.048-.524-.048-1.047-.286-1.523L38.016 1.237C37.587.477 36.777 0 35.873 0H13.647c-.904 0-1.713.476-2.142 1.237L.37 20.513c-.43.76-.43 1.713 0 2.475l11.136 19.275c.38.666 1.047 1.095 1.81 1.19 0-.428.094-.81.332-1.19l11.088-19.276z"/><path fill="#364D55" d="M61.62 42.263L50.485 22.987c-.238-.428-.62-.76-1.047-.952-.048.333-.143.666-.286.952L38.016 42.263c-.428.76-1.237 1.237-2.142 1.237.904 0 1.713.476 2.142 1.237l11.137 19.275c.19.286.238.62.286.952.428-.19.81-.524 1.047-.952l11.137-19.275c.427-.76.427-1.713 0-2.474z"/><path fill="#003033" d="M38.015 44.737c-.428-.76-1.237-1.237-2.142-1.237H13.647c-.143 0-.238.048-.333.048 0 .428.095.81.333 1.19l11.137 19.275c.428.76 1.237 1.237 2.142 1.237h21.417c.38 0 .76-.095 1.095-.286-.048-.333-.143-.666-.286-.952L38.015 44.737z"/><path fill="#332C00" d="M35.873 43.5c.904 0 1.713-.476 2.142-1.237l11.137-19.275c.19-.286.238-.62.286-.952-.333-.19-.714-.286-1.095-.286H26.878c-.904 0-1.713.476-2.142 1.237L13.6 42.263c-.19.38-.333.76-.333 1.19.095 0 .238.048.333.048h22.273z"/><path fill="#F29100" d="M88.844 33.553v6.758h12.28v6.52h-12.28v13.993h-8.376v-33.98h21.226v6.662h-12.85v.048zM124.3 60.824l-3.378-7.472c-.428-.904-1.38-3.332-2.475-4.426-.904-.904-2.046-.857-3.19-.857h-.475V60.87h-8.234v-34.03h9.233c4.38 0 8.71-.286 12.137 3.094 1.475 1.475 2.808 3.665 2.808 6.663 0 4.616-2.903 8.137-8.852 8.756 2.046.095 3.427.81 4.52 1.95 1.524 1.524 2.38 3.713 3.475 6.045l3.38 7.426H124.3v.048zm-2.617-26.367c-1.047-1.047-2.665-1.19-4.95-1.19h-2v8.52h2.38c2 0 5.57-.096 5.57-4.427.047-.95-.238-2.14-1-2.903zM136.675 60.824V26.842h21.512v6.663H145.05v6.758h12.328v6.52H145.05v7.234h13.565v6.758h-21.94v.05zM163.28 60.824V26.842h21.512v6.663H171.61v6.758h12.326v6.52H171.61v7.234h13.563v6.758H163.28v.05z"/><path fill="#364D55" d="M207.256 26.08c4.854 0 12.803 2.095 12.803 7.235v2.808h-3.237V34.22c0-3.19-5.52-4.95-9.47-4.95-7.568 0-13.422 5.948-13.422 14.182 0 8.186 5.807 14.706 13.565 14.706 7.044 0 11.184-4.807 11.184-4.807l1.95 2.476s-4.712 5.52-13.183 5.52c-9.995 0-17.038-7.947-17.038-17.942-.002-9.756 7.232-17.323 16.846-17.323zM235.288 35.79c6.758 0 10.232 5.188 10.232 11.28 0 .57-.095 1.666-.095 1.666h-18.752c.095 6.187 4.426 9.71 9.47 9.71 4.475 0 7.33-3 7.33-3l1.618 2.476s-3.568 3.522-9.09 3.522c-7.233 0-12.802-5.235-12.802-12.803.05-7.996 5.522-12.85 12.09-12.85zm6.853 10.328c-.19-5.045-3.283-7.52-6.9-7.52-4.045 0-7.567 2.618-8.424 7.52h15.325zM252.136 40.31c0-.665-.38-1.046-1.047-1.046h-2.047v-2.856h3.38c2.045 0 2.95.857 2.95 2.713v1.096c0 .952-.095 1.76-.095 1.76h.095c.857-2.236 3.998-6.186 9.71-6.186 6.09 0 8.233 3.474 8.233 9.47v11.614c0 .714.38 1.047 1.047 1.047h2.047v2.857h-3.474c-2.094 0-2.95-.857-2.95-2.95v-11.71c0-3.854-.572-7.233-5.284-7.233-4.188 0-7.758 2.856-8.9 6.9-.286 1-.38 2.143-.38 3.285v11.707h-3.285V40.31z"/></svg>