<?xml version="1.0" encoding="utf-8"?>
<!-- Generator: Adobe Illustrator 18.0.0, SVG Export Plug-In . SVG Version: 6.00 Build 0)  -->
<!DOCTYPE svg PUBLIC "-//W3C//DTD SVG 1.1//EN" "http://www.w3.org/Graphics/SVG/1.1/DTD/svg11.dtd">
<svg version="1.1" id="Layer_1" xmlns="http://www.w3.org/2000/svg" xmlns:xlink="http://www.w3.org/1999/xlink" x="0px" y="0px"
	 width="22px" height="22px" viewBox="0 0 22 22" enable-background="new 0 0 22 22" xml:space="preserve">
<path fill="#10C8A5" d="M13.074,11l8.64-8.64c0.382-0.382,0.382-1.001,0-1.382l-0.691-0.691c-0.382-0.382-1.001-0.382-1.382,0
	L11,8.926l-8.64-8.64c-0.382-0.382-1.001-0.382-1.382,0L0.286,0.978c-0.382,0.382-0.382,1.001,0,1.382L8.926,11l-8.64,8.64
	c-0.382,0.382-0.382,1.001,0,1.382l0.691,0.691c0.382,0.382,1.001,0.382,1.383,0l8.64-8.64l8.64,8.64
	c0.382,0.382,1.001,0.382,1.382,0l0.691-0.691c0.382-0.382,0.382-1.001,0-1.382L13.074,11z"/>
</svg>
