<?xml version="1.0" encoding="utf-8"?>
<!-- Generator: Adobe Illustrator 18.0.0, SVG Export Plug-In . SVG Version: 6.00 Build 0)  -->
<!DOCTYPE svg PUBLIC "-//W3C//DTD SVG 1.1//EN" "http://www.w3.org/Graphics/SVG/1.1/DTD/svg11.dtd">
<svg version="1.1" id="Layer_1" xmlns="http://www.w3.org/2000/svg" xmlns:xlink="http://www.w3.org/1999/xlink" x="0px" y="0px"
	 width="22.506px" height="22.506px" viewBox="0 0 22.506 22.506" enable-background="new 0 0 22.506 22.506" xml:space="preserve">
<path fill="#009F98" d="M13.374,11.253l8.839-8.839c0.39-0.391,0.39-1.024,0-1.414l-0.707-0.707c-0.391-0.391-1.024-0.391-1.414,0
	l-8.839,8.839L2.414,0.293C2.024-0.098,1.391-0.098,1,0.293L0.293,1c-0.391,0.391-0.391,1.024,0,1.414l8.839,8.839l-8.839,8.839
	c-0.391,0.391-0.391,1.024,0,1.414L1,22.213c0.391,0.391,1.024,0.391,1.414,0l8.839-8.839l8.839,8.839
	c0.39,0.391,1.024,0.391,1.414,0l0.707-0.707c0.391-0.391,0.391-1.024,0-1.414L13.374,11.253z"/>
</svg>
