<?xml version="1.0" encoding="utf-8"?>
<!-- Generator: Adobe Illustrator 18.0.0, SVG Export Plug-In . SVG Version: 6.00 Build 0)  -->
<!DOCTYPE svg PUBLIC "-//W3C//DTD SVG 1.1//EN" "http://www.w3.org/Graphics/SVG/1.1/DTD/svg11.dtd">
<svg version="1.1" id="Layer_1" xmlns="http://www.w3.org/2000/svg" xmlns:xlink="http://www.w3.org/1999/xlink" x="0px" y="0px"
	 width="211.205px" height="50.417px" viewBox="0 0 211.205 50.417" enable-background="new 0 0 211.205 50.417"
	 xml:space="preserve">
<g>
	<g>
		<path fill="#EEEEEE" d="M42.141,10.1l-0.854-2.438h-3.853L36.579,10.1h-1.261l3.391-9.343h1.33l3.418,9.343H42.141z M39.353,2.087
			L37.784,6.64h3.151L39.353,2.087z"/>
		<path fill="#EEEEEE" d="M50.567,10.254c-0.868,0-1.4-0.364-1.471-0.406v3.25h-1.19V3.32h1.064v0.504
			c0.099-0.084,0.757-0.687,1.905-0.687c1.807,0,2.997,1.415,2.997,3.46C53.872,8.783,52.444,10.254,50.567,10.254z M50.665,4.146
			c-0.925,0-1.527,0.561-1.569,0.588v4.062c0.112,0.084,0.574,0.448,1.359,0.448c1.303,0,2.213-0.994,2.213-2.647
			C52.668,5.113,51.814,4.146,50.665,4.146z"/>
		<path fill="#EEEEEE" d="M59.093,4.217c-0.084-0.015-0.294-0.042-0.505-0.042c-1.33,0-1.891,0.966-2.003,1.106V10.1h-1.19V3.32
			h1.064v0.882c0.07-0.084,0.812-1.064,2.186-1.064c0.504,0,0.687,0.112,0.729,0.126L59.093,4.217z"/>
		<path fill="#EEEEEE" d="M62.87,10.254c-1.892,0-3.152-1.401-3.152-3.544c0-2.129,1.275-3.572,3.25-3.572
			c1.892,0,3.138,1.401,3.138,3.572C66.106,8.839,64.831,10.254,62.87,10.254z M62.898,4.118c-1.218,0-1.988,1.022-1.988,2.55
			c0,1.555,0.868,2.591,2.03,2.591c1.261,0,1.976-0.994,1.976-2.535C64.915,5.169,64.061,4.118,62.898,4.118z"/>
		<path fill="#EEEEEE" d="M68.202,12.747c-0.392,0.393-1.009,0.561-1.568,0.561c-0.589,0-1.022-0.21-1.107-0.252l0.295-0.883
			c0.126,0.042,0.378,0.14,0.7,0.14c0.504,0,0.7-0.195,0.798-0.294c0.238-0.238,0.309-0.616,0.309-1.177V3.32h1.19v7.409
			C68.819,11.654,68.707,12.243,68.202,12.747z M68.216,1.892c-0.405,0-0.728-0.322-0.728-0.729s0.322-0.729,0.728-0.729
			c0.406,0,0.729,0.322,0.729,0.729S68.622,1.892,68.216,1.892z"/>
		<path fill="#EEEEEE" d="M76.242,7.032h-4.721c-0.015,1.162,0.658,2.213,2.129,2.213c1.064,0,1.793-0.462,1.919-0.532l0.448,0.812
			c-0.112,0.084-1.036,0.729-2.465,0.729c-2.06,0-3.223-1.485-3.223-3.502c0-2.157,1.261-3.614,3.152-3.614
			c1.709,0,2.787,1.261,2.787,3.39C76.27,6.668,76.242,6.906,76.242,7.032z M73.496,4.091c-1.064,0-1.863,0.784-1.961,2.003h3.586
			C75.121,5.309,74.757,4.091,73.496,4.091z"/>
		<path fill="#EEEEEE" d="M80.734,10.254c-1.947,0-3.292-1.359-3.292-3.432c0-2.157,1.443-3.685,3.446-3.685
			c1.274,0,2.087,0.645,2.157,0.729l-0.504,0.771c-0.127-0.084-0.715-0.49-1.625-0.49c-1.387,0-2.27,1.177-2.27,2.563
			c0,1.499,0.868,2.507,2.199,2.507c1.022,0,1.751-0.504,1.807-0.532l0.49,0.812C83.101,9.554,82.135,10.254,80.734,10.254z"/>
		<path fill="#EEEEEE" d="M87.258,10.268c-0.616,0-1.163-0.154-1.527-0.519c-0.49-0.49-0.448-1.176-0.448-1.988v-3.46h-1.19V3.32
			h1.19V1.415h1.191V3.32h2.087v0.98h-2.087v3.655c0,0.687,0.027,1.289,0.994,1.289c0.546,0,0.883-0.168,0.938-0.182l0.309,0.84
			C88.631,9.945,88.099,10.268,87.258,10.268z"/>
		<path fill="#EEEEEE" d="M95.755,10.268c-1.232,0-2.241-0.406-2.479-0.49V0h1.19v3.698c0.07-0.056,0.757-0.561,1.808-0.561
			c1.751,0,2.969,1.345,2.969,3.446C99.242,8.769,97.828,10.268,95.755,10.268z M96.077,4.146c-0.896,0-1.513,0.504-1.611,0.574
			v4.328c0.126,0.042,0.49,0.21,1.261,0.21c1.401,0,2.312-1.05,2.312-2.661C98.038,5.071,97.212,4.146,96.077,4.146z"/>
		<path fill="#EEEEEE" d="M103.987,10.436c-0.462,1.205-0.784,1.779-1.232,2.228c-0.364,0.364-0.98,0.645-1.765,0.645
			c-0.785,0-1.303-0.28-1.373-0.309l0.336-0.896c0.098,0.028,0.448,0.196,0.98,0.196c0.435,0,0.799-0.14,1.051-0.393
			c0.393-0.392,0.616-0.98,0.896-1.694l-2.815-6.892h1.288l2.157,5.49l1.962-5.49h1.204L103.987,10.436z"/>
	</g>
	<g>
		<g>
			<path fill="#00A099" d="M11.699,40.95c-0.394,0-0.746-0.207-0.932-0.539l-4.847-8.39c-0.083-0.166-0.145-0.331-0.145-0.518
				c-0.331,0.041-0.621,0.228-0.787,0.518l-4.847,8.39c-0.186,0.331-0.186,0.746,0,1.077l4.847,8.39
				c0.186,0.331,0.539,0.539,0.932,0.539h9.695c0.394,0,0.746-0.207,0.932-0.539l4.847-8.39c0.124-0.207,0.145-0.435,0.124-0.663
				c-0.145,0.083-0.311,0.124-0.476,0.124H11.699L11.699,40.95z"/>
			<path fill="#C6C6C5" d="M10.767,22.555c0.186-0.331,0.539-0.539,0.932-0.539h9.342c0.166,0,0.331,0.041,0.476,0.124
				c0.021-0.228-0.021-0.456-0.124-0.663l-4.847-8.39c-0.186-0.331-0.539-0.539-0.932-0.539H5.94c-0.394,0-0.746,0.207-0.932,0.539
				l-4.847,8.39c-0.186,0.331-0.186,0.746,0,1.077l4.847,8.39c0.166,0.29,0.456,0.476,0.787,0.518c0-0.186,0.041-0.352,0.145-0.518
				L10.767,22.555z"/>
			<path fill="#364D55" d="M26.821,30.945l-4.847-8.39c-0.104-0.186-0.269-0.331-0.456-0.414c-0.021,0.145-0.062,0.29-0.124,0.414
				l-4.847,8.39c-0.186,0.331-0.539,0.539-0.932,0.539c0.394,0,0.746,0.207,0.932,0.539l4.847,8.39
				c0.083,0.124,0.104,0.269,0.124,0.414c0.186-0.083,0.352-0.228,0.456-0.414l4.847-8.39C27.007,31.69,27.007,31.276,26.821,30.945
				z"/>
			<path fill="#002628" d="M16.546,32.022c-0.186-0.331-0.539-0.539-0.932-0.539H5.94c-0.062,0-0.104,0.021-0.145,0.021
				c0,0.186,0.041,0.352,0.145,0.518l4.847,8.39c0.186,0.331,0.539,0.539,0.932,0.539h9.322c0.166,0,0.331-0.041,0.476-0.124
				c-0.021-0.145-0.062-0.29-0.124-0.414L16.546,32.022z"/>
			<path fill="#2A3C42" d="M15.614,31.483c0.394,0,0.746-0.207,0.932-0.539l4.847-8.39c0.083-0.124,0.104-0.269,0.124-0.414
				c-0.145-0.083-0.311-0.124-0.476-0.124h-9.342c-0.394,0-0.746,0.207-0.932,0.539l-4.847,8.39
				c-0.083,0.166-0.145,0.331-0.145,0.518c0.041,0,0.104,0.021,0.145,0.021H15.614z"/>
		</g>
		<g>
			<path fill="#FFFFFF" d="M82.668,25.952c0-0.311-0.166-0.456-0.456-0.456h-0.911v-1.305h1.574c0.911,0,1.284,0.373,1.284,1.284
				v8.41c0,2.465,1.574,4.019,3.998,4.019c2.424,0,4.019-1.554,4.019-4.06v-8.369c0-0.911,0.373-1.284,1.284-1.284h1.574v1.305
				h-0.911c-0.29,0-0.456,0.145-0.456,0.456v7.996c0,3.211-2.196,5.344-5.469,5.344s-5.51-2.134-5.51-5.344v-7.996H82.668z"/>
			<path fill="#FFFFFF" d="M97.583,25.952c0-0.311-0.166-0.456-0.456-0.456h-0.911v-1.305h1.574c0.911,0,1.284,0.373,1.284,1.284
				v5.158h1.781c0.559,0,0.994-0.104,1.243-0.539l3.604-5.924h1.699l-3.832,6.235c-0.373,0.621-0.766,0.829-0.766,0.829v0.041
				c0,0,0.352,0.124,0.725,0.849l2.589,5.117c0.207,0.435,0.539,0.476,1.077,0.476h0.414v1.305h-0.787
				c-1.201,0-1.574-0.124-2.051-1.119l-2.714-5.427c-0.228-0.476-0.725-0.559-1.346-0.559h-1.636v7.126h-1.471V25.952H97.583z"/>
			<path fill="#FFFFFF" d="M115.999,23.922c3.439,0,5.199,1.823,5.199,1.823l-0.87,1.098c0,0-1.657-1.533-4.309-1.533
				c-3.335,0-5.904,2.693-5.904,6.256c0,3.667,2.527,6.318,5.883,6.318c2.942,0,4.702-2.175,4.702-2.175v-1.844
				c0-0.311-0.166-0.456-0.456-0.456h-0.911v-1.305h1.471c0.911,0,1.284,0.373,1.284,1.284v5.655h-1.346v-1.119
				c0-0.311,0.021-0.642,0.021-0.642h-0.041c0,0-1.74,2.009-4.868,2.009c-4.06,0-7.271-3.252-7.271-7.727
				C108.562,27.299,111.794,23.922,115.999,23.922z"/>
			<path fill="#FFFFFF" d="M129.049,28.148c2.942,0,4.454,2.258,4.454,4.909c0,0.249-0.041,0.725-0.041,0.725H125.3
				c0.041,2.693,1.926,4.226,4.122,4.226c1.947,0,3.19-1.305,3.19-1.305l0.704,1.077c0,0-1.554,1.533-3.957,1.533
				c-3.149,0-5.572-2.279-5.572-5.572C123.808,30.24,126.19,28.148,129.049,28.148z M132.032,32.622
				c-0.083-2.196-1.429-3.273-3.004-3.273c-1.761,0-3.294,1.139-3.667,3.273H132.032z"/>
			<path fill="#FFFFFF" d="M136.382,30.116c0-0.29-0.166-0.456-0.456-0.456h-0.891v-1.243h1.471c0.891,0,1.284,0.373,1.284,1.181
				v0.476c0,0.414-0.041,0.766-0.041,0.766h0.041c0.373-0.974,1.74-2.693,4.226-2.693c2.652,0,3.584,1.512,3.584,4.122v5.054
				c0,0.311,0.166,0.456,0.456,0.456h0.891v1.243h-1.512c-0.911,0-1.284-0.373-1.284-1.284v-5.096c0-1.678-0.249-3.149-2.299-3.149
				c-1.823,0-3.377,1.243-3.874,3.004c-0.124,0.435-0.166,0.932-0.166,1.429v5.117h-1.429V30.116z"/>
			<path fill="#FFFFFF" d="M153.079,28.148c2.942,0,4.454,2.258,4.454,4.909c0,0.249-0.041,0.725-0.041,0.725h-8.162
				c0.041,2.693,1.926,4.226,4.122,4.226c1.947,0,3.19-1.305,3.19-1.305l0.704,1.077c0,0-1.554,1.533-3.957,1.533
				c-3.149,0-5.572-2.279-5.572-5.572C147.838,30.24,150.22,28.148,153.079,28.148z M156.062,32.622
				c-0.083-2.196-1.429-3.273-3.004-3.273c-1.761,0-3.294,1.139-3.667,3.273H156.062z"/>
			<path fill="#FFFFFF" d="M165.508,32.477h0.601v-0.124c0-2.217-0.808-3.004-2.755-3.004c-0.539,0-2.072,0.145-2.072,0.932v0.684
				h-1.367V29.95c0-1.471,2.548-1.802,3.459-1.802c3.356,0,4.164,1.802,4.164,4.081v5.096c0,0.311,0.166,0.456,0.456,0.456h0.891
				v1.243h-1.45c-0.911,0-1.264-0.394-1.264-1.264c0-0.456,0.021-0.787,0.021-0.787h-0.041c0.021,0-0.87,2.299-3.542,2.299
				c-1.781,0-3.625-1.036-3.625-3.149C159.003,32.602,163.685,32.477,165.508,32.477z M162.856,38.07
				c2.03,0,3.252-2.113,3.252-3.957v-0.476h-0.621c-1.678,0-5.013,0.041-5.013,2.424C160.474,37.055,161.261,38.07,162.856,38.07z"
				/>
			<path fill="#FFFFFF" d="M171.598,25.869c0-0.29-0.166-0.456-0.456-0.456h-0.891v-1.243h1.512c0.911,0,1.284,0.373,1.284,1.284
				v11.87c0,0.311,0.166,0.456,0.456,0.456h0.891v1.243h-1.512c-0.911,0-1.284-0.373-1.284-1.284V25.869z"/>
			<path fill="#FFFFFF" d="M181.396,28.148c3.107,0,5.634,2.362,5.634,5.531c0,3.211-2.527,5.634-5.614,5.634
				c-3.107,0-5.634-2.403-5.634-5.634C175.803,30.509,178.309,28.148,181.396,28.148z M181.417,38.008
				c2.258,0,4.122-1.864,4.122-4.329c0-2.403-1.864-4.205-4.122-4.205c-2.279,0-4.143,1.802-4.143,4.205
				C177.274,36.144,179.138,38.008,181.417,38.008z"/>
			<path fill="#FFFFFF" d="M192.955,28.148c2.859,0,3.542,1.823,3.542,1.823h0.041c0,0,0-0.186,0-0.394
				c0-0.766,0.331-1.16,1.201-1.16h1.471v1.243h-0.87c-0.29,0-0.456,0.145-0.456,0.456v8.68c0,3.377-2.507,4.702-5.117,4.702
				c-1.201,0-2.424-0.311-3.459-0.849l0.559-1.201c0,0,1.305,0.746,2.879,0.746c2.072,0,3.729-0.974,3.729-3.335v-0.932
				c0-0.394,0.021-0.766,0.021-0.766h-0.041c-0.642,1.16-1.699,1.844-3.335,1.844c-2.859,0-4.744-2.258-4.744-5.448
				S190.096,28.148,192.955,28.148z M196.456,33.513c0-3.107-1.471-4.06-3.356-4.06c-2.072,0-3.273,1.512-3.273,4.039
				c0,2.548,1.367,4.184,3.459,4.184C194.985,37.677,196.456,36.641,196.456,33.513z"/>
			<path fill="#FFFFFF" d="M202.567,42.193c0.932,0,1.574-0.766,1.968-1.74l0.642-1.45l-3.77-8.866
				c-0.166-0.373-0.352-0.476-0.746-0.476h-0.207v-1.243h0.663c0.953,0,1.243,0.207,1.636,1.16l2.734,6.65
				c0.207,0.539,0.373,1.139,0.373,1.139h0.041c0,0,0.145-0.621,0.352-1.139l2.631-6.65c0.352-0.953,0.684-1.16,1.657-1.16h0.663
				v1.243h-0.207c-0.373,0-0.601,0.104-0.746,0.476l-4.599,11.124c-0.559,1.346-1.636,2.217-3.045,2.217
				c-1.471,0-2.299-1.036-2.299-1.036l0.684-1.056C200.972,41.406,201.655,42.193,202.567,42.193z"/>
		</g>
		<g>
			<path fill="#00A099" d="M38.856,26.76v3.107h5.614v2.962h-5.614v6.422h-3.812V23.715h9.715v3.045H38.856z"/>
			<path fill="#00A099" d="M54.268,30.489c-0.062-0.021-0.394-0.083-0.704-0.083c-1.636,0-2.672,0.932-3.107,1.574v7.271h-3.729
				V27.692h3.066v1.533c0.062-0.124,1.491-1.885,3.874-1.885c0.891,0,1.367,0.331,1.429,0.352L54.268,30.489z"/>
			<path fill="#00A099" d="M66.324,34.59H58.68c0,0.808,0.725,2.362,2.962,2.362c1.554,0,2.755-0.704,2.962-0.808l1.098,2.196
				c-0.145,0.145-2.03,1.284-4.35,1.284c-4.329,0-5.987-3.149-5.987-6.049c0-3.542,2.299-6.194,5.676-6.194
				c3.48,0,5.324,2.444,5.324,6.173C66.366,34.01,66.324,34.3,66.324,34.59z M61.104,29.888c-1.926,0-2.32,1.906-2.362,2.237h4.35
				C63.113,31.67,62.927,29.888,61.104,29.888z"/>
			<path fill="#00A099" d="M79.167,34.59h-7.644c0,0.808,0.725,2.362,2.962,2.362c1.554,0,2.755-0.704,2.962-0.808l1.098,2.196
				c-0.145,0.145-2.03,1.284-4.35,1.284c-4.329,0-5.987-3.149-5.987-6.049c0-3.542,2.299-6.194,5.676-6.194
				c3.48,0,5.324,2.444,5.324,6.173C79.209,34.01,79.167,34.3,79.167,34.59z M73.947,29.888c-1.926,0-2.32,1.906-2.362,2.237h4.35
				C75.957,31.67,75.77,29.888,73.947,29.888z"/>
		</g>
	</g>
</g>
</svg>
