<?xml version="1.0" encoding="utf-8"?>
<!-- Generator: Adobe Illustrator 18.0.0, SVG Export Plug-In . SVG Version: 6.00 Build 0)  -->
<!DOCTYPE svg PUBLIC "-//W3C//DTD SVG 1.1//EN" "http://www.w3.org/Graphics/SVG/1.1/DTD/svg11.dtd">
<svg version="1.1" id="Layer_1" xmlns="http://www.w3.org/2000/svg" xmlns:xlink="http://www.w3.org/1999/xlink" x="0px" y="0px"
	 width="270.221px" height="87px" viewBox="0 0 270.221 87" enable-background="new 0 0 270.221 87" xml:space="preserve">
<g>
	<g>
		<path fill="#00A099" d="M26.878,65.25c-0.904,0-1.713-0.476-2.142-1.237L13.6,44.737c-0.19-0.381-0.333-0.761-0.333-1.19
			c-0.761,0.095-1.428,0.524-1.809,1.19L0.321,64.013c-0.428,0.761-0.428,1.713,0,2.475l11.137,19.275
			C11.886,86.524,12.695,87,13.6,87h22.274c0.904,0,1.713-0.476,2.142-1.237l11.137-19.275c0.286-0.476,0.333-0.999,0.286-1.523
			c-0.333,0.19-0.714,0.286-1.095,0.286H26.878z"/>
		<path fill="#A3897A" d="M24.736,22.987c0.428-0.761,1.237-1.237,2.142-1.237h21.464c0.381,0,0.761,0.095,1.095,0.286
			c0.048-0.524-0.048-1.047-0.286-1.523L38.015,1.237C37.587,0.476,36.777,0,35.873,0H13.647c-0.904,0-1.713,0.476-2.142,1.237
			L0.369,20.513c-0.428,0.761-0.428,1.713,0,2.475l11.137,19.275c0.381,0.666,1.047,1.095,1.809,1.19
			c0-0.428,0.095-0.809,0.333-1.19L24.736,22.987z"/>
		<path fill="#364D55" d="M61.621,42.263L50.484,22.987c-0.238-0.428-0.619-0.761-1.047-0.952c-0.048,0.333-0.143,0.666-0.286,0.952
			L38.015,42.263c-0.428,0.761-1.237,1.237-2.142,1.237c0.904,0,1.713,0.476,2.142,1.237l11.137,19.275
			c0.19,0.286,0.238,0.619,0.286,0.952c0.428-0.19,0.809-0.524,1.047-0.952l11.137-19.275
			C62.049,43.976,62.049,43.024,61.621,42.263z"/>
		<path fill="#003033" d="M38.015,44.737c-0.428-0.761-1.237-1.237-2.142-1.237H13.647c-0.143,0-0.238,0.048-0.333,0.048
			c0,0.428,0.095,0.809,0.333,1.19l11.137,19.275c0.428,0.761,1.237,1.237,2.142,1.237h21.417c0.381,0,0.761-0.095,1.095-0.286
			c-0.048-0.333-0.143-0.666-0.286-0.952L38.015,44.737z"/>
		<path fill="#232929" d="M35.873,43.5c0.904,0,1.713-0.476,2.142-1.237l11.137-19.275c0.19-0.286,0.238-0.619,0.286-0.952
			c-0.333-0.19-0.714-0.286-1.095-0.286H26.878c-0.904,0-1.713,0.476-2.142,1.237L13.6,42.263c-0.19,0.381-0.333,0.761-0.333,1.19
			c0.095,0,0.238,0.048,0.333,0.048H35.873z"/>
	</g>
	<g>
		<path fill="#A3897A" d="M88.844,33.553v6.758h12.279v6.52H88.844v13.992h-8.376V26.842h21.226v6.663h-12.85V33.553z"/>
		<path fill="#A3897A" d="M124.301,60.824l-3.379-7.472c-0.428-0.904-1.38-3.332-2.475-4.426c-0.904-0.904-2.046-0.857-3.189-0.857
			h-0.476v12.803h-8.234V26.842h9.233c4.379,0,8.71-0.286,12.136,3.094c1.475,1.475,2.808,3.665,2.808,6.663
			c0,4.617-2.903,8.138-8.852,8.757c2.046,0.095,3.427,0.809,4.521,1.951c1.523,1.523,2.38,3.712,3.474,6.044l3.379,7.425h-8.947
			V60.824z M121.683,34.457c-1.047-1.047-2.665-1.19-4.95-1.19h-1.999v8.519h2.38c1.999,0,5.568-0.095,5.568-4.426
			C122.73,36.409,122.445,35.219,121.683,34.457z"/>
		<path fill="#A3897A" d="M136.675,60.824V26.842h21.512v6.663h-13.136v6.758h12.327v6.52h-12.327v7.234h13.564v6.758h-21.94V60.824
			z"/>
		<path fill="#A3897A" d="M163.28,60.824V26.842h21.512v6.663h-13.183v6.758h12.327v6.52h-12.327v7.234h13.564v6.758H163.28V60.824z
			"/>
		<path fill="#364D55" d="M192.74,29.698h-3.141V26.7h14.468c5.759,0,9.804,3.807,9.804,9.709c0,5.283-3.236,8.424-6.615,9.138
			v0.095c0,0,0.666,0.381,1.19,1.38l4.902,9.709c0.476,0.999,1.237,1.095,2.427,1.095h0.666v2.998h-1.523
			c-2.76,0-3.617-0.333-4.712-2.57l-4.902-9.757c-0.904-1.809-1.571-2.047-3.474-2.047h-5.759v14.373h-3.379V29.698H192.74z
			 M203.686,43.452c4.093,0,6.615-2.665,6.615-6.949c0-4.236-2.522-6.806-6.568-6.806h-7.615v13.754H203.686z"/>
		<path fill="#364D55" d="M230.576,35.79c6.758,0,10.233,5.188,10.233,11.28c0,0.571-0.095,1.666-0.095,1.666h-18.752
			c0.095,6.187,4.426,9.709,9.471,9.709c4.474,0,7.329-2.998,7.329-2.998l1.618,2.475c0,0-3.569,3.522-9.09,3.522
			c-7.234,0-12.803-5.235-12.803-12.803C218.535,40.644,224.008,35.79,230.576,35.79z M237.43,46.118
			c-0.19-5.045-3.284-7.52-6.901-7.52c-4.045,0-7.567,2.618-8.424,7.52H237.43z"/>
		<path fill="#364D55" d="M255.848,35.79c6.568,0,8.138,4.188,8.138,4.188h0.095c0,0,0-0.428,0-0.904
			c0-1.761,0.761-2.665,2.76-2.665h3.379v2.856h-1.999c-0.666,0-1.047,0.333-1.047,1.047v19.941c0,7.758-5.759,10.804-11.755,10.804
			c-2.76,0-5.568-0.714-7.948-1.951l1.285-2.76c0,0,2.998,1.713,6.615,1.713c4.759,0,8.567-2.237,8.567-7.662v-2.142
			c0-0.904,0.048-1.761,0.048-1.761h-0.095c-1.475,2.665-3.903,4.236-7.662,4.236c-6.568,0-10.899-5.188-10.899-12.517
			S249.28,35.79,255.848,35.79z M263.939,48.164c0-7.139-3.379-9.328-7.71-9.328c-4.759,0-7.52,3.474-7.52,9.281
			c0,5.854,3.141,9.614,7.948,9.614C260.512,57.73,263.939,55.351,263.939,48.164z"/>
	</g>
</g>
</svg>
