<?xml version="1.0" encoding="utf-8"?>
<!-- Generator: Adobe Illustrator 18.0.0, SVG Export Plug-In . SVG Version: 6.00 Build 0)  -->
<!DOCTYPE svg PUBLIC "-//W3C//DTD SVG 1.1//EN" "http://www.w3.org/Graphics/SVG/1.1/DTD/svg11.dtd">
<svg version="1.1" id="Layer_1" xmlns="http://www.w3.org/2000/svg" xmlns:xlink="http://www.w3.org/1999/xlink" x="0px" y="0px"
	 width="212.986px" height="50.417px" viewBox="0 0 212.986 50.417" enable-background="new 0 0 212.986 50.417"
	 xml:space="preserve">
<g>
	<g>
		<g>
			<path fill="#00A099" d="M11.74,40.917c-0.395,0-0.748-0.208-0.935-0.54L5.94,31.957c-0.083-0.166-0.146-0.333-0.146-0.52
				c-0.333,0.042-0.624,0.229-0.79,0.52L0.14,40.376c-0.187,0.333-0.187,0.748,0,1.081l4.864,8.419
				c0.187,0.333,0.54,0.54,0.935,0.54h9.729c0.395,0,0.748-0.208,0.935-0.54l4.864-8.419c0.125-0.208,0.146-0.437,0.125-0.665
				c-0.146,0.083-0.312,0.125-0.478,0.125H11.74z"/>
			<path fill="#C6C6C5" d="M10.804,22.457c0.187-0.333,0.54-0.54,0.935-0.54h9.375c0.166,0,0.333,0.042,0.478,0.125
				c0.021-0.229-0.021-0.457-0.125-0.665l-4.864-8.419c-0.187-0.333-0.54-0.54-0.935-0.54H5.961c-0.395,0-0.748,0.208-0.935,0.54
				l-4.864,8.419c-0.187,0.333-0.187,0.748,0,1.081l4.864,8.419c0.166,0.291,0.457,0.478,0.79,0.52c0-0.187,0.042-0.353,0.146-0.52
				L10.804,22.457z"/>
			<path fill="#1E383F" d="M26.915,30.876l-4.864-8.419c-0.104-0.187-0.27-0.333-0.457-0.416c-0.021,0.146-0.062,0.291-0.125,0.416
				l-4.864,8.419c-0.187,0.333-0.54,0.54-0.935,0.54c0.395,0,0.748,0.208,0.935,0.54l4.864,8.419
				c0.083,0.125,0.104,0.27,0.125,0.416c0.187-0.083,0.353-0.229,0.457-0.416l4.864-8.419
				C27.102,31.624,27.102,31.209,26.915,30.876z"/>
			<path fill="#002628" d="M16.604,31.957c-0.187-0.333-0.54-0.54-0.935-0.54H5.961c-0.062,0-0.104,0.021-0.146,0.021
				c0,0.187,0.042,0.353,0.146,0.52l4.864,8.419c0.187,0.333,0.54,0.54,0.935,0.54h9.354c0.166,0,0.333-0.042,0.478-0.125
				c-0.021-0.146-0.062-0.291-0.125-0.416L16.604,31.957z"/>
			<path fill="#2A3C42" d="M15.669,31.417c0.395,0,0.748-0.208,0.935-0.54l4.864-8.419c0.083-0.125,0.104-0.27,0.125-0.416
				c-0.146-0.083-0.312-0.125-0.478-0.125H11.74c-0.395,0-0.748,0.208-0.935,0.54L5.94,30.876c-0.083,0.166-0.146,0.333-0.146,0.52
				c0.042,0,0.104,0.021,0.146,0.021H15.669z"/>
		</g>
		<g>
			<path fill="#00A099" d="M38.806,27.072v2.952h5.363v2.848h-5.363v6.112h-3.659V24.141h9.271v2.91h-5.613V27.072z"/>
			<path fill="#00A099" d="M54.292,38.983l-1.476-3.264c-0.187-0.395-0.603-1.455-1.081-1.933c-0.395-0.395-0.894-0.374-1.393-0.374
				h-0.208v5.571h-3.596V24.141h4.033c1.912,0,3.804-0.125,5.301,1.351c0.644,0.644,1.226,1.601,1.226,2.91
				c0,2.016-1.268,3.555-3.867,3.825c0.894,0.042,1.497,0.353,1.975,0.852c0.665,0.665,1.039,1.621,1.518,2.64l1.476,3.243h-3.908
				V38.983z M53.149,27.467c-0.457-0.457-1.164-0.52-2.162-0.52h-0.873v3.721h1.039c0.873,0,2.432-0.042,2.432-1.933
				C53.606,28.319,53.482,27.8,53.149,27.467z"/>
			<path fill="#00A099" d="M59.697,38.983V24.141h9.396v2.91h-5.737v2.952h5.384v2.848h-5.384v3.16h5.925v2.973H59.697z"/>
			<path fill="#00A099" d="M71.318,38.983V24.141h9.396v2.91h-5.758v2.952h5.384v2.848h-5.384v3.16h5.925v2.973H71.318z"/>
			<path fill="#FFFFFF" d="M83.998,25.845c0-0.312-0.166-0.457-0.457-0.457h-0.915v-1.31h1.58c0.915,0,1.289,0.374,1.289,1.289v8.44
				c0,2.474,1.58,4.033,4.012,4.033c2.432,0,4.033-1.559,4.033-4.074v-8.398c0-0.915,0.374-1.289,1.289-1.289h1.58v1.31h-0.915
				c-0.291,0-0.457,0.146-0.457,0.457v8.024c0,3.222-2.203,5.363-5.488,5.363s-5.53-2.141-5.53-5.363v-8.024H83.998z"/>
			<path fill="#FFFFFF" d="M98.965,25.845c0-0.312-0.166-0.457-0.457-0.457h-0.915v-1.31h1.58c0.915,0,1.289,0.374,1.289,1.289
				v5.176h1.788c0.561,0,0.998-0.104,1.247-0.54l3.617-5.945h1.705l-3.846,6.257c-0.374,0.624-0.769,0.832-0.769,0.832v0.042
				c0,0,0.353,0.125,0.728,0.852l2.598,5.135c0.208,0.437,0.54,0.478,1.081,0.478h0.416v1.31h-0.79c-1.206,0-1.58-0.125-2.058-1.123
				l-2.723-5.446c-0.229-0.478-0.728-0.561-1.351-0.561h-1.642v7.151h-1.476V25.845H98.965z"/>
			<path fill="#FFFFFF" d="M117.446,23.808c3.451,0,5.218,1.829,5.218,1.829l-0.873,1.102c0,0-1.663-1.538-4.324-1.538
				c-3.347,0-5.925,2.702-5.925,6.278c0,3.679,2.536,6.34,5.904,6.34c2.952,0,4.719-2.183,4.719-2.183v-1.85
				c0-0.312-0.166-0.457-0.457-0.457h-0.915v-1.31h1.476c0.915,0,1.289,0.374,1.289,1.289v5.675h-1.351v-1.123
				c0-0.312,0.021-0.644,0.021-0.644h-0.042c0,0-1.746,2.016-4.885,2.016c-4.074,0-7.296-3.264-7.296-7.754
				C109.983,27.217,113.226,23.808,117.446,23.808z"/>
			<path fill="#FFFFFF" d="M130.542,28.049c2.952,0,4.469,2.266,4.469,4.927c0,0.249-0.042,0.728-0.042,0.728h-8.19
				c0.042,2.702,1.933,4.241,4.137,4.241c1.954,0,3.201-1.31,3.201-1.31l0.707,1.081c0,0-1.559,1.538-3.97,1.538
				c-3.16,0-5.592-2.287-5.592-5.592C125.283,30.169,127.673,28.049,130.542,28.049z M133.535,32.56
				c-0.083-2.204-1.434-3.284-3.014-3.284c-1.767,0-3.305,1.143-3.679,3.284H133.535z"/>
			<path fill="#FFFFFF" d="M137.901,30.024c0-0.291-0.166-0.457-0.457-0.457h-0.894v-1.247h1.476c0.894,0,1.289,0.374,1.289,1.185
				v0.478c0,0.416-0.042,0.769-0.042,0.769h0.042c0.374-0.977,1.746-2.702,4.241-2.702c2.661,0,3.596,1.518,3.596,4.137v5.072
				c0,0.312,0.166,0.457,0.457,0.457h0.894v1.247h-1.518c-0.915,0-1.289-0.374-1.289-1.289V32.56c0-1.684-0.249-3.16-2.307-3.16
				c-1.829,0-3.388,1.247-3.887,3.014c-0.125,0.437-0.166,0.935-0.166,1.434v5.135h-1.434V30.024z"/>
			<path fill="#FFFFFF" d="M154.656,28.049c2.952,0,4.469,2.266,4.469,4.927c0,0.249-0.042,0.728-0.042,0.728h-8.19
				c0.042,2.702,1.933,4.241,4.137,4.241c1.954,0,3.201-1.31,3.201-1.31l0.707,1.081c0,0-1.559,1.538-3.97,1.538
				c-3.16,0-5.592-2.287-5.592-5.592C149.396,30.169,151.787,28.049,154.656,28.049z M157.649,32.56
				c-0.083-2.204-1.434-3.284-3.014-3.284c-1.767,0-3.305,1.143-3.679,3.284H157.649z"/>
			<path fill="#FFFFFF" d="M167.128,32.414h0.603V32.29c0-2.224-0.811-3.014-2.765-3.014c-0.54,0-2.079,0.146-2.079,0.935v0.665
				h-1.372v-1.019c0-1.476,2.557-1.809,3.472-1.809c3.368,0,4.178,1.809,4.178,4.095v5.114c0,0.312,0.166,0.457,0.457,0.457h0.894
				v1.247h-1.455c-0.915,0-1.268-0.395-1.268-1.268c0-0.457,0.021-0.79,0.021-0.79h-0.042c0.021,0-0.873,2.307-3.555,2.307
				c-1.788,0-3.638-1.039-3.638-3.16C160.601,32.539,165.299,32.414,167.128,32.414z M164.467,38.006c2.037,0,3.264-2.12,3.264-3.97
				v-0.478h-0.624c-1.684,0-5.031,0.042-5.031,2.432C162.077,36.988,162.867,38.006,164.467,38.006z"/>
			<path fill="#FFFFFF" d="M173.24,25.783c0-0.291-0.166-0.457-0.457-0.457h-0.894v-1.247h1.518c0.915,0,1.289,0.374,1.289,1.289
				v11.911c0,0.312,0.166,0.457,0.457,0.457h0.894v1.247h-1.518c-0.915,0-1.289-0.374-1.289-1.289V25.783z"/>
			<path fill="#FFFFFF" d="M183.072,28.049c3.118,0,5.654,2.37,5.654,5.55c0,3.222-2.536,5.654-5.633,5.654
				c-3.118,0-5.654-2.411-5.654-5.654C177.46,30.44,179.975,28.049,183.072,28.049z M183.093,37.944
				c2.266,0,4.137-1.871,4.137-4.345c0-2.411-1.871-4.22-4.137-4.22c-2.287,0-4.158,1.809-4.158,4.22
				C178.936,36.073,180.807,37.944,183.093,37.944z"/>
			<path fill="#FFFFFF" d="M194.672,28.049c2.869,0,3.555,1.829,3.555,1.829h0.042c0,0,0-0.187,0-0.395
				c0-0.769,0.333-1.164,1.206-1.164h1.476v1.247h-0.873c-0.291,0-0.457,0.146-0.457,0.457v8.71c0,3.388-2.515,4.719-5.135,4.719
				c-1.206,0-2.432-0.312-3.472-0.852l0.561-1.206c0,0,1.31,0.748,2.89,0.748c2.079,0,3.742-0.977,3.742-3.347v-0.935
				c0-0.395,0.021-0.769,0.021-0.769h-0.042c-0.644,1.164-1.705,1.85-3.347,1.85c-2.869,0-4.76-2.266-4.76-5.467
				S191.803,28.049,194.672,28.049z M198.185,33.454c0-3.118-1.476-4.074-3.368-4.074c-2.079,0-3.284,1.518-3.284,4.054
				c0,2.557,1.372,4.199,3.472,4.199C196.709,37.632,198.185,36.593,198.185,33.454z"/>
			<path fill="#FFFFFF" d="M204.318,42.164c0.935,0,1.58-0.769,1.975-1.746l0.644-1.455l-3.783-8.918
				c-0.166-0.374-0.353-0.478-0.748-0.478h-0.208v-1.247h0.665c0.956,0,1.247,0.208,1.642,1.164l2.744,6.673
				c0.208,0.54,0.374,1.143,0.374,1.143h0.042c0,0,0.146-0.624,0.353-1.143l2.64-6.673c0.353-0.956,0.686-1.164,1.663-1.164h0.665
				v1.247h-0.208c-0.374,0-0.603,0.104-0.748,0.478l-4.615,11.163c-0.561,1.351-1.642,2.224-3.056,2.224
				c-1.476,0-2.307-1.039-2.307-1.039l0.686-1.06C202.717,41.374,203.403,42.164,204.318,42.164z"/>
		</g>
	</g>
	<g>
		<path fill="#EEEEEE" d="M42.141,10.1l-0.854-2.438h-3.853L36.579,10.1h-1.261l3.391-9.343h1.33l3.418,9.343H42.141z M39.353,2.087
			L37.784,6.64h3.151L39.353,2.087z"/>
		<path fill="#EEEEEE" d="M50.567,10.254c-0.868,0-1.4-0.364-1.471-0.406v3.25h-1.19V3.32h1.064v0.504
			c0.099-0.084,0.757-0.687,1.905-0.687c1.807,0,2.997,1.415,2.997,3.46C53.872,8.783,52.444,10.254,50.567,10.254z M50.665,4.146
			c-0.925,0-1.527,0.561-1.569,0.588v4.063c0.112,0.084,0.574,0.448,1.359,0.448c1.303,0,2.213-0.994,2.213-2.647
			C52.668,5.113,51.814,4.146,50.665,4.146z"/>
		<path fill="#EEEEEE" d="M59.093,4.217c-0.084-0.015-0.294-0.042-0.505-0.042c-1.33,0-1.891,0.966-2.003,1.106V10.1h-1.19V3.32
			h1.064v0.882c0.07-0.084,0.812-1.064,2.186-1.064c0.504,0,0.687,0.112,0.729,0.126L59.093,4.217z"/>
		<path fill="#EEEEEE" d="M62.87,10.254c-1.892,0-3.152-1.401-3.152-3.544c0-2.129,1.275-3.572,3.25-3.572
			c1.892,0,3.138,1.401,3.138,3.572C66.106,8.839,64.831,10.254,62.87,10.254z M62.898,4.118c-1.218,0-1.988,1.022-1.988,2.55
			c0,1.555,0.868,2.591,2.03,2.591c1.261,0,1.976-0.994,1.976-2.535C64.915,5.169,64.061,4.118,62.898,4.118z"/>
		<path fill="#EEEEEE" d="M68.202,12.747c-0.392,0.393-1.009,0.561-1.568,0.561c-0.589,0-1.022-0.21-1.107-0.252l0.295-0.883
			c0.126,0.042,0.378,0.14,0.7,0.14c0.504,0,0.7-0.195,0.798-0.294c0.238-0.238,0.309-0.616,0.309-1.177V3.32h1.19v7.409
			C68.819,11.654,68.707,12.243,68.202,12.747z M68.216,1.892c-0.405,0-0.728-0.322-0.728-0.729s0.322-0.729,0.728-0.729
			c0.406,0,0.729,0.322,0.729,0.729S68.622,1.892,68.216,1.892z"/>
		<path fill="#EEEEEE" d="M76.242,7.032h-4.721c-0.015,1.162,0.658,2.213,2.129,2.213c1.064,0,1.793-0.462,1.919-0.532l0.448,0.812
			c-0.112,0.084-1.036,0.729-2.465,0.729c-2.06,0-3.223-1.485-3.223-3.502c0-2.157,1.261-3.614,3.152-3.614
			c1.709,0,2.787,1.261,2.787,3.39C76.27,6.668,76.242,6.906,76.242,7.032z M73.496,4.091c-1.064,0-1.863,0.784-1.961,2.003h3.586
			C75.121,5.309,74.757,4.091,73.496,4.091z"/>
		<path fill="#EEEEEE" d="M80.734,10.254c-1.947,0-3.292-1.359-3.292-3.432c0-2.157,1.443-3.685,3.446-3.685
			c1.274,0,2.087,0.645,2.157,0.729l-0.504,0.771c-0.127-0.084-0.715-0.49-1.625-0.49c-1.387,0-2.27,1.177-2.27,2.563
			c0,1.499,0.868,2.507,2.199,2.507c1.022,0,1.751-0.504,1.807-0.532l0.49,0.812C83.101,9.554,82.135,10.254,80.734,10.254z"/>
		<path fill="#EEEEEE" d="M87.258,10.268c-0.616,0-1.163-0.154-1.527-0.519c-0.49-0.49-0.448-1.176-0.448-1.988v-3.46h-1.19V3.32
			h1.19V1.415h1.191V3.32h2.087v0.98h-2.087v3.655c0,0.687,0.027,1.289,0.994,1.289c0.546,0,0.883-0.168,0.938-0.182l0.309,0.84
			C88.631,9.945,88.099,10.268,87.258,10.268z"/>
		<path fill="#EEEEEE" d="M95.755,10.268c-1.232,0-2.241-0.406-2.479-0.49V0h1.19v3.698c0.07-0.056,0.757-0.561,1.808-0.561
			c1.751,0,2.969,1.345,2.969,3.446C99.242,8.769,97.828,10.268,95.755,10.268z M96.077,4.146c-0.896,0-1.513,0.504-1.611,0.574
			v4.328c0.126,0.042,0.49,0.21,1.261,0.21c1.401,0,2.312-1.05,2.312-2.661C98.038,5.071,97.212,4.146,96.077,4.146z"/>
		<path fill="#EEEEEE" d="M103.987,10.436c-0.462,1.205-0.784,1.779-1.232,2.228c-0.364,0.364-0.98,0.645-1.765,0.645
			c-0.785,0-1.303-0.28-1.373-0.309l0.336-0.896c0.098,0.028,0.448,0.196,0.98,0.196c0.435,0,0.799-0.14,1.051-0.393
			c0.393-0.392,0.616-0.98,0.896-1.694l-2.815-6.892h1.288l2.157,5.49l1.962-5.49h1.204L103.987,10.436z"/>
	</g>
</g>
</svg>
