<?xml version="1.0" encoding="utf-8"?>
<!-- Generator: Adobe Illustrator 18.0.0, SVG Export Plug-In . SVG Version: 6.00 Build 0)  -->
<!DOCTYPE svg PUBLIC "-//W3C//DTD SVG 1.1//EN" "http://www.w3.org/Graphics/SVG/1.1/DTD/svg11.dtd">
<svg version="1.1" id="Layer_1" xmlns="http://www.w3.org/2000/svg" xmlns:xlink="http://www.w3.org/1999/xlink" x="0px" y="0px"
	 width="276.408px" height="87px" viewBox="0 0 276.408 87" enable-background="new 0 0 276.408 87" xml:space="preserve">
<g>
	<g>
		<path fill="#00A099" d="M26.878,65.25c-0.904,0-1.713-0.476-2.142-1.237L13.6,44.737c-0.19-0.381-0.333-0.761-0.333-1.19
			c-0.761,0.095-1.428,0.524-1.809,1.19L0.321,64.013c-0.428,0.761-0.428,1.713,0,2.475l11.137,19.275
			C11.886,86.524,12.695,87,13.6,87h22.274c0.904,0,1.713-0.476,2.142-1.237l11.137-19.275c0.286-0.476,0.333-0.999,0.286-1.523
			c-0.333,0.19-0.714,0.286-1.095,0.286L26.878,65.25L26.878,65.25z"/>
		<path fill="#F29100" d="M24.736,22.987c0.428-0.761,1.237-1.237,2.142-1.237h21.464c0.381,0,0.761,0.095,1.095,0.286
			c0.048-0.524-0.048-1.047-0.286-1.523L38.015,1.237C37.587,0.476,36.777,0,35.873,0H13.647c-0.904,0-1.713,0.476-2.142,1.237
			L0.369,20.513c-0.428,0.761-0.428,1.713,0,2.475l11.137,19.275c0.381,0.666,1.047,1.095,1.809,1.19
			c0-0.428,0.095-0.809,0.333-1.19L24.736,22.987z"/>
		<path fill="#364D55" d="M61.621,42.263L50.484,22.987c-0.238-0.428-0.619-0.761-1.047-0.952c-0.048,0.333-0.143,0.666-0.286,0.952
			L38.015,42.263c-0.428,0.761-1.237,1.237-2.142,1.237c0.904,0,1.713,0.476,2.142,1.237l11.137,19.275
			c0.19,0.286,0.238,0.619,0.286,0.952c0.428-0.19,0.809-0.524,1.047-0.952l11.137-19.275
			C62.049,43.976,62.049,43.024,61.621,42.263z"/>
		<path fill="#003033" d="M38.015,44.737c-0.428-0.761-1.237-1.237-2.142-1.237H13.647c-0.143,0-0.238,0.048-0.333,0.048
			c0,0.428,0.095,0.809,0.333,1.19l11.137,19.275c0.428,0.761,1.237,1.237,2.142,1.237h21.417c0.381,0,0.761-0.095,1.095-0.286
			c-0.048-0.333-0.143-0.666-0.286-0.952L38.015,44.737z"/>
		<path fill="#332C00" d="M35.873,43.5c0.904,0,1.713-0.476,2.142-1.237l11.137-19.275c0.19-0.286,0.238-0.619,0.286-0.952
			c-0.333-0.19-0.714-0.286-1.095-0.286H26.878c-0.904,0-1.713,0.476-2.142,1.237L13.6,42.263c-0.19,0.381-0.333,0.761-0.333,1.19
			c0.095,0,0.238,0.048,0.333,0.048H35.873z"/>
	</g>
	<g>
		<path fill="#F29100" d="M88.844,33.553v6.758h12.279v6.52H88.844v13.992h-8.376V26.842h21.226v6.663h-12.85V33.553z"/>
		<path fill="#F29100" d="M124.301,60.824l-3.379-7.472c-0.428-0.904-1.38-3.332-2.475-4.426c-0.904-0.904-2.046-0.857-3.189-0.857
			h-0.476v12.803h-8.234V26.842h9.233c4.379,0,8.71-0.286,12.136,3.094c1.475,1.475,2.808,3.665,2.808,6.663
			c0,4.617-2.903,8.138-8.852,8.757c2.046,0.095,3.427,0.809,4.521,1.951c1.523,1.523,2.38,3.712,3.474,6.044l3.379,7.425h-8.947
			V60.824z M121.683,34.457c-1.047-1.047-2.665-1.19-4.95-1.19h-1.999v8.519h2.38c1.999,0,5.568-0.095,5.568-4.426
			C122.73,36.409,122.445,35.219,121.683,34.457z"/>
		<path fill="#F29100" d="M136.675,60.824V26.842h21.512v6.663h-13.136v6.758h12.327v6.52h-12.327v7.234h13.564v6.758h-21.94V60.824
			z"/>
		<path fill="#F29100" d="M163.28,60.824V26.842h21.512v6.663h-13.183v6.758h12.327v6.52h-12.327v7.234h13.564v6.758H163.28V60.824z
			"/>
		<path fill="#364D55" d="M207.256,26.081c4.854,0,12.803,2.094,12.803,7.234v2.808h-3.236v-1.904c0-3.189-5.521-4.95-9.471-4.95
			c-7.567,0-13.421,5.949-13.421,14.183c0,8.186,5.806,14.706,13.564,14.706c7.044,0,11.184-4.807,11.184-4.807l1.951,2.475
			c0,0-4.712,5.521-13.183,5.521c-9.995,0-17.038-7.948-17.038-17.943C190.408,33.648,197.642,26.081,207.256,26.081z"/>
		<path fill="#364D55" d="M235.288,35.79c6.758,0,10.232,5.188,10.232,11.28c0,0.571-0.095,1.666-0.095,1.666h-18.752
			c0.095,6.187,4.426,9.709,9.471,9.709c4.474,0,7.329-2.998,7.329-2.998l1.618,2.475c0,0-3.569,3.522-9.09,3.522
			c-7.234,0-12.803-5.235-12.803-12.803C223.247,40.644,228.72,35.79,235.288,35.79z M242.141,46.118
			c-0.19-5.045-3.284-7.52-6.901-7.52c-4.045,0-7.567,2.618-8.424,7.52H242.141z"/>
		<path fill="#364D55" d="M252.136,40.311c0-0.666-0.381-1.047-1.047-1.047h-2.046v-2.856h3.379c2.046,0,2.951,0.857,2.951,2.713
			v1.095c0,0.952-0.095,1.761-0.095,1.761h0.095c0.857-2.237,3.998-6.187,9.709-6.187c6.092,0,8.234,3.474,8.234,9.471v11.613
			c0,0.714,0.381,1.047,1.047,1.047h2.047v2.856h-3.474c-2.094,0-2.951-0.857-2.951-2.951V46.118c0-3.855-0.571-7.234-5.283-7.234
			c-4.188,0-7.758,2.856-8.9,6.901c-0.286,0.999-0.381,2.142-0.381,3.284v11.708h-3.284V40.311z"/>
	</g>
</g>
</svg>
