<?xml version="1.0" encoding="utf-8"?>
<!-- Generator: Adobe Illustrator 18.0.0, SVG Export Plug-In . SVG Version: 6.00 Build 0)  -->
<!DOCTYPE svg PUBLIC "-//W3C//DTD SVG 1.1//EN" "http://www.w3.org/Graphics/SVG/1.1/DTD/svg11.dtd">
<svg version="1.1" id="Layer_1" xmlns="http://www.w3.org/2000/svg" xmlns:xlink="http://www.w3.org/1999/xlink" x="0px" y="0px"
	 width="212.986px" height="48.737px" viewBox="0 0 212.986 48.737" enable-background="new 0 0 212.986 48.737"
	 xml:space="preserve">
<g>
	<g>
		<path fill="#AAAAAA" d="M40.934,10.071l-1.037-2.872h-4.229l-1.037,2.872h-0.603l3.404-9.344h0.742l3.432,9.344H40.934z
			 M37.782,1.358L35.877,6.64h3.824L37.782,1.358z"/>
		<path fill="#AAAAAA" d="M48.379,10.197c-0.896,0-1.485-0.364-1.625-0.462v3.306H46.18V3.39h0.574v0.532
			c0.098-0.084,0.826-0.687,1.989-0.687c1.709,0,2.885,1.331,2.885,3.348C51.628,8.712,50.312,10.197,48.379,10.197z M48.687,3.754
			c-1.162,0-1.82,0.63-1.933,0.714v4.707c0.098,0.056,0.714,0.49,1.667,0.49c1.583,0,2.605-1.261,2.605-3.124
			C51.026,4.916,50.115,3.754,48.687,3.754z"/>
		<path fill="#AAAAAA" d="M56.485,3.81c-0.112-0.014-0.267-0.042-0.574-0.042c-1.429,0-2.003,1.261-2.073,1.358v4.945h-0.574V3.39
			h0.574v1.022c0.098-0.141,0.729-1.205,2.101-1.205c0.505,0,0.645,0.084,0.687,0.099L56.485,3.81z"/>
		<path fill="#AAAAAA" d="M60.026,10.226c-1.778,0-2.928-1.331-2.928-3.502c0-2.13,1.107-3.488,2.984-3.488
			c1.778,0,2.899,1.316,2.899,3.586C62.982,8.908,61.848,10.226,60.026,10.226z M60.041,3.739c-1.443,0-2.34,1.191-2.34,2.97
			c0,1.808,1.009,2.998,2.34,2.998c1.484,0,2.339-1.148,2.339-2.941C62.38,4.958,61.371,3.739,60.041,3.739z"/>
		<path fill="#AAAAAA" d="M64.674,12.732c-0.252,0.252-0.7,0.49-1.246,0.49c-0.547,0-0.841-0.14-0.883-0.154l0.14-0.476
			c0.112,0.042,0.309,0.126,0.658,0.126c0.491,0,0.701-0.112,0.938-0.351c0.253-0.252,0.322-0.771,0.322-1.303V3.39h0.574v7.578
			C65.178,11.864,65.052,12.354,64.674,12.732z M64.898,1.456c-0.238,0-0.435-0.182-0.435-0.42s0.196-0.42,0.435-0.42
			c0.237,0,0.42,0.182,0.42,0.42S65.136,1.456,64.898,1.456z"/>
		<path fill="#AAAAAA" d="M72.32,6.766h-4.903c0,1.723,0.896,2.857,2.466,2.857c1.162,0,1.989-0.574,1.989-0.574l0.279,0.476
			c-0.069,0.07-1.008,0.673-2.311,0.673c-1.892,0-3.026-1.373-3.026-3.418c0-2.186,1.163-3.544,2.998-3.544
			c1.429,0,2.535,1.106,2.535,3.109C72.348,6.457,72.334,6.611,72.32,6.766z M69.813,3.739c-1.219,0-2.283,0.938-2.367,2.494h4.314
			C71.76,5.042,71.171,3.739,69.813,3.739z"/>
		<path fill="#AAAAAA" d="M76.687,10.197c-1.765,0-3.082-1.205-3.082-3.306c0-2.144,1.289-3.656,3.265-3.656
			c1.162,0,1.849,0.546,1.919,0.616l-0.295,0.435c-0.111-0.07-0.658-0.49-1.666-0.49c-1.598,0-2.62,1.232-2.62,2.97
			c0,1.765,1.064,2.857,2.508,2.857c1.106,0,1.793-0.463,1.891-0.519l0.267,0.462C78.731,9.679,77.877,10.197,76.687,10.197z"/>
		<path fill="#AAAAAA" d="M82.748,10.211c-0.616,0-0.995-0.154-1.275-0.434c-0.406-0.406-0.35-1.135-0.35-1.793V3.88H79.96V3.39
			h1.163V1.484h0.574V3.39h2.199v0.49h-2.199v4.076c0,0.994-0.057,1.723,1.106,1.723c0.519,0,0.868-0.168,0.98-0.21l0.183,0.462
			C83.84,9.987,83.477,10.211,82.748,10.211z"/>
		<path fill="#AAAAAA" d="M91.077,10.197c-1.135,0-1.975-0.378-2.101-0.42V0h0.574v3.922c0.07-0.057,0.826-0.687,1.933-0.687
			c1.85,0,2.941,1.358,2.941,3.404C94.425,8.74,93.038,10.197,91.077,10.197z M91.47,3.768c-1.148,0-1.849,0.658-1.919,0.715v4.916
			c0.098,0.028,0.645,0.267,1.568,0.267c1.653,0,2.704-1.205,2.704-2.998C93.823,4.986,92.94,3.768,91.47,3.768z"/>
		<path fill="#AAAAAA" d="M98.596,10.659c-0.294,0.799-0.603,1.485-0.994,1.877c-0.547,0.547-1.191,0.687-1.695,0.687
			c-0.616,0-1.051-0.168-1.106-0.196l0.168-0.504c0.098,0.028,0.393,0.154,0.925,0.154c0.448,0,0.91-0.154,1.219-0.463
			c0.462-0.462,0.742-1.288,1.008-1.946L95.374,3.39h0.658l2.409,6.079l2.157-6.079h0.631L98.596,10.659z"/>
	</g>
	<g>
		<g>
			<path fill="#00A099" d="M11.74,39.237c-0.395,0-0.748-0.208-0.935-0.54L5.94,30.277c-0.083-0.166-0.146-0.333-0.146-0.52
				c-0.333,0.042-0.624,0.229-0.79,0.52L0.14,38.696c-0.187,0.333-0.187,0.748,0,1.081l4.864,8.419
				c0.187,0.333,0.54,0.54,0.935,0.54h9.729c0.395,0,0.748-0.208,0.935-0.54l4.864-8.419c0.125-0.208,0.146-0.437,0.125-0.665
				c-0.146,0.083-0.312,0.125-0.478,0.125H11.74z"/>
			<path fill="#C6C6C5" d="M10.804,20.777c0.187-0.333,0.54-0.54,0.935-0.54h9.375c0.166,0,0.333,0.042,0.478,0.125
				c0.021-0.229-0.021-0.457-0.125-0.665l-4.864-8.419c-0.187-0.333-0.54-0.54-0.935-0.54H5.961c-0.395,0-0.748,0.208-0.935,0.54
				l-4.864,8.419c-0.187,0.333-0.187,0.748,0,1.081l4.864,8.419c0.166,0.291,0.457,0.478,0.79,0.52c0-0.187,0.042-0.353,0.146-0.52
				L10.804,20.777z"/>
			<path fill="#364D55" d="M26.915,29.196l-4.864-8.419c-0.104-0.187-0.27-0.333-0.457-0.416c-0.021,0.146-0.062,0.291-0.125,0.416
				l-4.864,8.419c-0.187,0.333-0.54,0.54-0.935,0.54c0.395,0,0.748,0.208,0.935,0.54l4.864,8.419
				c0.083,0.125,0.104,0.27,0.125,0.416c0.187-0.083,0.353-0.229,0.457-0.416l4.864-8.419
				C27.102,29.945,27.102,29.529,26.915,29.196z"/>
			<path fill="#002628" d="M16.604,30.277c-0.187-0.333-0.54-0.54-0.935-0.54H5.961c-0.062,0-0.104,0.021-0.146,0.021
				c0,0.187,0.042,0.353,0.146,0.52l4.864,8.419c0.187,0.333,0.54,0.54,0.935,0.54h9.354c0.166,0,0.333-0.042,0.478-0.125
				c-0.021-0.146-0.062-0.291-0.125-0.416L16.604,30.277z"/>
			<path fill="#2A3C42" d="M15.669,29.737c0.395,0,0.748-0.208,0.935-0.54l4.864-8.419c0.083-0.125,0.104-0.27,0.125-0.416
				c-0.146-0.083-0.312-0.125-0.478-0.125H11.74c-0.395,0-0.748,0.208-0.935,0.54L5.94,29.196c-0.083,0.166-0.146,0.333-0.146,0.52
				c0.042,0,0.104,0.021,0.146,0.021H15.669z"/>
		</g>
		<g>
			<path fill="#00A099" d="M38.806,25.392v2.952h5.363v2.848h-5.363v6.112h-3.659V22.461h9.271v2.91h-5.613V25.392z"/>
			<path fill="#00A099" d="M54.292,37.303l-1.476-3.264c-0.187-0.395-0.603-1.455-1.081-1.933c-0.395-0.395-0.894-0.374-1.393-0.374
				h-0.208v5.571h-3.596V22.461h4.033c1.912,0,3.804-0.125,5.301,1.351c0.644,0.644,1.226,1.601,1.226,2.91
				c0,2.016-1.268,3.555-3.867,3.825c0.894,0.042,1.497,0.353,1.975,0.852c0.665,0.665,1.039,1.621,1.518,2.64l1.476,3.243h-3.908
				V37.303z M53.149,25.787c-0.457-0.457-1.164-0.52-2.162-0.52h-0.873v3.721h1.039c0.873,0,2.432-0.042,2.432-1.933
				C53.606,26.639,53.482,26.12,53.149,25.787z"/>
			<path fill="#00A099" d="M59.697,37.303V22.461h9.396v2.91h-5.737v2.952h5.384v2.848h-5.384v3.16h5.925v2.973H59.697z"/>
			<path fill="#00A099" d="M71.318,37.303V22.461h9.396v2.91h-5.758v2.952h5.384v2.848h-5.384v3.16h5.925v2.973H71.318z"/>
			<path fill="#364D55" d="M83.998,24.166c0-0.312-0.166-0.457-0.457-0.457h-0.915v-1.31h1.58c0.915,0,1.289,0.374,1.289,1.289v8.44
				c0,2.474,1.58,4.033,4.012,4.033s4.033-1.559,4.033-4.074v-8.398c0-0.915,0.374-1.289,1.289-1.289h1.58v1.31h-0.915
				c-0.291,0-0.457,0.146-0.457,0.457v8.024c0,3.222-2.204,5.363-5.488,5.363s-5.53-2.141-5.53-5.363v-8.024H83.998z"/>
			<path fill="#364D55" d="M98.965,24.166c0-0.312-0.166-0.457-0.457-0.457h-0.915v-1.31h1.58c0.915,0,1.289,0.374,1.289,1.289
				v5.176h1.788c0.561,0,0.998-0.104,1.247-0.54l3.617-5.945h1.705l-3.846,6.257c-0.374,0.624-0.769,0.832-0.769,0.832v0.042
				c0,0,0.353,0.125,0.728,0.852l2.598,5.135c0.208,0.437,0.54,0.478,1.081,0.478h0.416v1.31h-0.79c-1.206,0-1.58-0.125-2.058-1.123
				l-2.723-5.446c-0.229-0.478-0.728-0.561-1.351-0.561h-1.642v7.151h-1.476V24.166H98.965z"/>
			<path fill="#364D55" d="M117.446,22.128c3.451,0,5.218,1.829,5.218,1.829l-0.873,1.102c0,0-1.663-1.538-4.324-1.538
				c-3.347,0-5.925,2.702-5.925,6.278c0,3.679,2.536,6.34,5.904,6.34c2.952,0,4.719-2.183,4.719-2.183v-1.85
				c0-0.312-0.166-0.457-0.457-0.457h-0.915v-1.31h1.476c0.915,0,1.289,0.374,1.289,1.289v5.675h-1.351v-1.123
				c0-0.312,0.021-0.644,0.021-0.644h-0.042c0,0-1.746,2.016-4.885,2.016c-4.074,0-7.296-3.264-7.296-7.754
				C109.983,25.538,113.226,22.128,117.446,22.128z"/>
			<path fill="#364D55" d="M130.542,26.369c2.952,0,4.469,2.266,4.469,4.927c0,0.249-0.042,0.728-0.042,0.728h-8.19
				c0.042,2.702,1.933,4.241,4.137,4.241c1.954,0,3.201-1.31,3.201-1.31l0.707,1.081c0,0-1.559,1.538-3.97,1.538
				c-3.16,0-5.592-2.287-5.592-5.592C125.283,28.489,127.673,26.369,130.542,26.369z M133.535,30.88
				c-0.083-2.204-1.434-3.284-3.014-3.284c-1.767,0-3.305,1.143-3.679,3.284H133.535z"/>
			<path fill="#364D55" d="M137.901,28.344c0-0.291-0.166-0.457-0.457-0.457h-0.894v-1.247h1.476c0.894,0,1.289,0.374,1.289,1.185
				v0.478c0,0.416-0.042,0.769-0.042,0.769h0.042c0.374-0.977,1.746-2.702,4.241-2.702c2.661,0,3.596,1.518,3.596,4.137v5.072
				c0,0.312,0.166,0.457,0.457,0.457h0.894v1.247h-1.518c-0.915,0-1.289-0.374-1.289-1.289V30.88c0-1.684-0.249-3.16-2.307-3.16
				c-1.829,0-3.388,1.247-3.887,3.014c-0.125,0.437-0.166,0.935-0.166,1.434v5.135h-1.434V28.344z"/>
			<path fill="#364D55" d="M154.656,26.369c2.952,0,4.469,2.266,4.469,4.927c0,0.249-0.042,0.728-0.042,0.728h-8.19
				c0.042,2.702,1.933,4.241,4.137,4.241c1.954,0,3.201-1.31,3.201-1.31l0.707,1.081c0,0-1.559,1.538-3.97,1.538
				c-3.16,0-5.592-2.287-5.592-5.592C149.396,28.489,151.787,26.369,154.656,26.369z M157.649,30.88
				c-0.083-2.204-1.434-3.284-3.014-3.284c-1.767,0-3.305,1.143-3.679,3.284H157.649z"/>
			<path fill="#364D55" d="M167.128,30.734h0.603V30.61c0-2.224-0.811-3.014-2.765-3.014c-0.54,0-2.079,0.146-2.079,0.935v0.665
				h-1.372v-1.019c0-1.476,2.557-1.809,3.472-1.809c3.368,0,4.178,1.809,4.178,4.095v5.114c0,0.312,0.166,0.457,0.457,0.457h0.894
				v1.247h-1.455c-0.915,0-1.268-0.395-1.268-1.268c0-0.457,0.021-0.79,0.021-0.79h-0.042c0.021,0-0.873,2.307-3.555,2.307
				c-1.788,0-3.638-1.039-3.638-3.16C160.601,30.859,165.299,30.734,167.128,30.734z M164.467,36.326c2.037,0,3.264-2.12,3.264-3.97
				v-0.478h-0.624c-1.684,0-5.031,0.042-5.031,2.432C162.077,35.308,162.867,36.326,164.467,36.326z"/>
			<path fill="#364D55" d="M173.24,24.103c0-0.291-0.166-0.457-0.457-0.457h-0.894v-1.247h1.518c0.915,0,1.289,0.374,1.289,1.289
				v11.911c0,0.312,0.166,0.457,0.457,0.457h0.894v1.247h-1.518c-0.915,0-1.289-0.374-1.289-1.289V24.103z"/>
			<path fill="#364D55" d="M183.072,26.369c3.118,0,5.654,2.37,5.654,5.55c0,3.222-2.536,5.654-5.633,5.654
				c-3.118,0-5.654-2.411-5.654-5.654C177.46,28.76,179.975,26.369,183.072,26.369z M183.093,36.264
				c2.266,0,4.137-1.871,4.137-4.345c0-2.411-1.871-4.22-4.137-4.22c-2.287,0-4.158,1.809-4.158,4.22
				C178.936,34.393,180.807,36.264,183.093,36.264z"/>
			<path fill="#364D55" d="M194.672,26.369c2.869,0,3.555,1.829,3.555,1.829h0.042c0,0,0-0.187,0-0.395
				c0-0.769,0.333-1.164,1.206-1.164h1.476v1.247h-0.873c-0.291,0-0.457,0.146-0.457,0.457v8.71c0,3.388-2.515,4.719-5.135,4.719
				c-1.206,0-2.432-0.312-3.472-0.852l0.561-1.206c0,0,1.31,0.748,2.889,0.748c2.079,0,3.742-0.977,3.742-3.347v-0.935
				c0-0.395,0.021-0.769,0.021-0.769h-0.042c-0.644,1.164-1.705,1.85-3.347,1.85c-2.869,0-4.76-2.266-4.76-5.467
				S191.803,26.369,194.672,26.369z M198.185,31.774c0-3.118-1.476-4.074-3.368-4.074c-2.079,0-3.284,1.518-3.284,4.054
				c0,2.557,1.372,4.199,3.472,4.199C196.709,35.952,198.185,34.913,198.185,31.774z"/>
			<path fill="#364D55" d="M204.318,40.484c0.935,0,1.58-0.769,1.975-1.746l0.644-1.455l-3.783-8.918
				c-0.166-0.374-0.353-0.478-0.748-0.478h-0.208v-1.247h0.665c0.956,0,1.247,0.208,1.642,1.164l2.744,6.673
				c0.208,0.54,0.374,1.143,0.374,1.143h0.042c0,0,0.146-0.624,0.353-1.143l2.64-6.673c0.353-0.956,0.686-1.164,1.663-1.164h0.665
				v1.247h-0.208c-0.374,0-0.603,0.104-0.748,0.478l-4.615,11.163c-0.561,1.351-1.642,2.224-3.056,2.224
				c-1.476,0-2.307-1.039-2.307-1.039l0.686-1.06C202.717,39.694,203.403,40.484,204.318,40.484z"/>
		</g>
	</g>
</g>
</svg>
