<?xml version="1.0" encoding="utf-8"?>
<!-- Generator: Adobe Illustrator 18.0.0, SVG Export Plug-In . SVG Version: 6.00 Build 0)  -->
<!DOCTYPE svg PUBLIC "-//W3C//DTD SVG 1.1//EN" "http://www.w3.org/Graphics/SVG/1.1/DTD/svg11.dtd">
<svg version="1.1" id="Layer_1" xmlns="http://www.w3.org/2000/svg" xmlns:xlink="http://www.w3.org/1999/xlink" x="0px" y="0px"
	 width="274.181px" height="86.794px" viewBox="0 0 274.181 86.794" enable-background="new 0 0 274.181 86.794"
	 xml:space="preserve">
<g>
	<path fill="#00A099" d="M26.8,65.108c-0.902,0-1.708-0.475-2.135-1.234L13.56,44.655c-0.19-0.38-0.332-0.759-0.332-1.186
		c-0.759,0.095-1.424,0.522-1.803,1.186L0.32,63.874c-0.427,0.759-0.427,1.708,0,2.468l11.104,19.219
		c0.427,0.759,1.234,1.234,2.135,1.234h22.209c0.902,0,1.708-0.475,2.135-1.234l11.104-19.219c0.285-0.475,0.332-0.997,0.285-1.519
		c-0.332,0.19-0.712,0.285-1.091,0.285L26.8,65.108L26.8,65.108z"/>
	<path fill="#F29100" d="M24.665,22.921c0.427-0.759,1.234-1.234,2.135-1.234h21.402c0.38,0,0.759,0.095,1.091,0.285
		c0.047-0.522-0.047-1.044-0.285-1.519L37.904,1.234C37.477,0.475,36.671,0,35.769,0H13.608c-0.902,0-1.708,0.475-2.135,1.234
		L0.368,20.453c-0.427,0.759-0.427,1.708,0,2.468L11.472,42.14c0.38,0.664,1.044,1.091,1.803,1.186c0-0.427,0.095-0.807,0.332-1.186
		L24.665,22.921z"/>
	<path fill="#364D55" d="M61.442,42.187L50.337,22.968c-0.237-0.427-0.617-0.759-1.044-0.949c-0.047,0.332-0.142,0.664-0.285,0.949
		L37.904,42.187c-0.427,0.759-1.234,1.234-2.135,1.234c0.902,0,1.708,0.475,2.135,1.234l11.104,19.219
		c0.19,0.285,0.237,0.617,0.285,0.949c0.427-0.19,0.807-0.522,1.044-0.949l11.104-19.219C61.869,43.896,61.869,42.946,61.442,42.187
		z"/>
	<path fill="#003033" d="M37.904,44.655c-0.427-0.759-1.234-1.234-2.135-1.234H13.608c-0.142,0-0.237,0.047-0.332,0.047
		c0,0.427,0.095,0.807,0.332,1.186l11.104,19.219c0.427,0.759,1.234,1.234,2.135,1.234h21.355c0.38,0,0.759-0.095,1.091-0.285
		c-0.047-0.332-0.142-0.664-0.285-0.949L37.904,44.655z"/>
	<path fill="#332C00" d="M35.769,43.421c0.902,0,1.708-0.475,2.135-1.234l11.104-19.219c0.19-0.285,0.237-0.617,0.285-0.949
		c-0.332-0.19-0.712-0.285-1.091-0.285H26.8c-0.902,0-1.708,0.475-2.135,1.234L13.56,42.187c-0.19,0.38-0.332,0.759-0.332,1.186
		c0.095,0,0.237,0.047,0.332,0.047H35.769z"/>
	<path fill="#364D55" d="M205.229,26.053c4.84,0,12.765,2.088,12.765,7.213v2.8h-3.227v-1.898c0-3.179-5.505-4.935-9.443-4.935
		c-7.545,0-13.382,5.932-13.382,14.141c0,8.162,5.789,14.663,13.525,14.663c7.023,0,11.152-4.793,11.152-4.793l1.946,2.468
		c0,0-4.698,5.505-13.145,5.505c-9.965,0-16.989-7.925-16.989-17.89C188.43,33.55,195.643,26.053,205.229,26.053z"/>
	<path fill="#364D55" d="M233.18,35.733c6.739,0,10.203,5.173,10.203,11.247c0,0.569-0.095,1.661-0.095,1.661h-18.697
		c0.095,6.169,4.413,9.681,9.443,9.681c4.461,0,7.308-2.99,7.308-2.99l1.613,2.468c0,0-3.559,3.512-9.064,3.512
		c-7.213,0-12.765-5.22-12.765-12.765C221.174,40.526,226.631,35.733,233.18,35.733z M240.014,46.031
		c-0.19-5.03-3.274-7.498-6.881-7.498c-4.034,0-7.545,2.61-8.399,7.498H240.014z"/>
	<path fill="#364D55" d="M249.979,40.242c0-0.664-0.38-1.044-1.044-1.044h-2.041V36.35h3.369c2.041,0,2.942,0.854,2.942,2.705v1.091
		c0,0.949-0.095,1.756-0.095,1.756h0.095c0.854-2.23,3.986-6.169,9.681-6.169c6.074,0,8.21,3.464,8.21,9.443v11.579
		c0,0.712,0.38,1.044,1.044,1.044h2.041v2.847h-3.464c-2.088,0-2.942-0.854-2.942-2.942V46.031c0-3.844-0.569-7.213-5.267-7.213
		c-4.176,0-7.735,2.847-8.874,6.881c-0.285,0.997-0.38,2.135-0.38,3.274v11.674h-3.274V40.242z"/>
	<g>
		<path fill="#F29100" d="M89.013,32.601v7.118h12.86v6.786h-12.86v14.711h-8.732V25.625h22.256v6.976H89.013z"/>
		<path fill="#F29100" d="M124.319,41.143c-0.142-0.047-0.902-0.19-1.613-0.19c-3.749,0-6.122,2.135-7.118,3.607v16.657h-8.542
			v-26.48h7.023v3.512c0.142-0.285,3.417-4.318,8.874-4.318c2.041,0,3.132,0.759,3.274,0.807L124.319,41.143z"/>
		<path fill="#F29100" d="M151.938,50.539h-17.511c0,1.851,1.661,5.41,6.786,5.41c3.559,0,6.311-1.613,6.786-1.851l2.515,5.03
			c-0.332,0.332-4.651,2.942-9.965,2.942c-9.918,0-13.714-7.213-13.714-13.857c0-8.115,5.267-14.189,13.003-14.189
			c7.972,0,12.196,5.6,12.196,14.141C152.033,49.21,151.938,49.875,151.938,50.539z M139.979,39.767
			c-4.413,0-5.315,4.366-5.41,5.125h9.965C144.582,43.848,144.155,39.767,139.979,39.767z"/>
		<path fill="#F29100" d="M181.36,50.539h-17.511c0,1.851,1.661,5.41,6.786,5.41c3.559,0,6.311-1.613,6.786-1.851l2.515,5.03
			c-0.332,0.332-4.651,2.942-9.965,2.942c-9.918,0-13.714-7.213-13.714-13.857c0-8.115,5.267-14.189,13.003-14.189
			c7.972,0,12.196,5.6,12.196,14.141C181.455,49.21,181.36,49.875,181.36,50.539z M169.401,39.767c-4.413,0-5.315,4.366-5.41,5.125
			h9.965C174.004,43.848,173.577,39.767,169.401,39.767z"/>
	</g>
</g>
</svg>
