<?xml version="1.0" encoding="utf-8"?>
<!-- Generator: Adobe Illustrator 18.0.0, SVG Export Plug-In . SVG Version: 6.00 Build 0)  -->
<!DOCTYPE svg PUBLIC "-//W3C//DTD SVG 1.1//EN" "http://www.w3.org/Graphics/SVG/1.1/DTD/svg11.dtd">
<svg version="1.1" id="Layer_1" xmlns="http://www.w3.org/2000/svg" xmlns:xlink="http://www.w3.org/1999/xlink" x="0px" y="0px"
	 width="211.46px" height="48.737px" viewBox="0 0 211.46 48.737" enable-background="new 0 0 211.46 48.737" xml:space="preserve">
<g>
	<g>
		<path fill="#AAAAAA" d="M40.934,10.071l-1.037-2.872h-4.229l-1.037,2.872h-0.603l3.404-9.344h0.742l3.432,9.344H40.934z
			 M37.782,1.358L35.877,6.64h3.824L37.782,1.358z"/>
		<path fill="#AAAAAA" d="M48.379,10.197c-0.896,0-1.485-0.364-1.625-0.462v3.306H46.18V3.39h0.574v0.532
			c0.098-0.084,0.826-0.687,1.989-0.687c1.709,0,2.885,1.331,2.885,3.348C51.628,8.712,50.312,10.197,48.379,10.197z M48.687,3.754
			c-1.162,0-1.82,0.63-1.933,0.714v4.707c0.098,0.056,0.714,0.49,1.667,0.49c1.583,0,2.605-1.261,2.605-3.124
			C51.026,4.916,50.115,3.754,48.687,3.754z"/>
		<path fill="#AAAAAA" d="M56.485,3.81c-0.112-0.014-0.267-0.042-0.574-0.042c-1.429,0-2.003,1.261-2.073,1.358v4.945h-0.574V3.39
			h0.574v1.022c0.098-0.141,0.729-1.205,2.101-1.205c0.505,0,0.645,0.084,0.687,0.099L56.485,3.81z"/>
		<path fill="#AAAAAA" d="M60.026,10.226c-1.778,0-2.928-1.331-2.928-3.502c0-2.13,1.107-3.488,2.984-3.488
			c1.778,0,2.899,1.316,2.899,3.586C62.982,8.908,61.848,10.226,60.026,10.226z M60.041,3.739c-1.443,0-2.34,1.191-2.34,2.97
			c0,1.808,1.009,2.998,2.34,2.998c1.484,0,2.339-1.148,2.339-2.941C62.38,4.958,61.371,3.739,60.041,3.739z"/>
		<path fill="#AAAAAA" d="M64.674,12.732c-0.252,0.252-0.7,0.49-1.246,0.49c-0.547,0-0.841-0.14-0.883-0.154l0.14-0.476
			c0.112,0.042,0.309,0.126,0.658,0.126c0.491,0,0.701-0.112,0.938-0.351c0.253-0.252,0.322-0.771,0.322-1.303V3.39h0.574v7.578
			C65.178,11.864,65.052,12.354,64.674,12.732z M64.898,1.456c-0.238,0-0.435-0.182-0.435-0.42s0.196-0.42,0.435-0.42
			c0.237,0,0.42,0.182,0.42,0.42S65.136,1.456,64.898,1.456z"/>
		<path fill="#AAAAAA" d="M72.32,6.766h-4.903c0,1.723,0.896,2.857,2.466,2.857c1.162,0,1.989-0.574,1.989-0.574l0.279,0.476
			c-0.069,0.07-1.008,0.673-2.311,0.673c-1.892,0-3.026-1.373-3.026-3.418c0-2.186,1.163-3.544,2.998-3.544
			c1.429,0,2.535,1.106,2.535,3.109C72.348,6.457,72.334,6.611,72.32,6.766z M69.813,3.739c-1.219,0-2.283,0.938-2.367,2.494h4.314
			C71.76,5.042,71.171,3.739,69.813,3.739z"/>
		<path fill="#AAAAAA" d="M76.687,10.197c-1.765,0-3.082-1.205-3.082-3.306c0-2.144,1.289-3.656,3.265-3.656
			c1.162,0,1.849,0.546,1.919,0.616l-0.295,0.435c-0.111-0.07-0.658-0.49-1.666-0.49c-1.598,0-2.62,1.232-2.62,2.97
			c0,1.765,1.064,2.857,2.508,2.857c1.106,0,1.793-0.463,1.891-0.519l0.267,0.462C78.731,9.679,77.877,10.197,76.687,10.197z"/>
		<path fill="#AAAAAA" d="M82.748,10.211c-0.616,0-0.995-0.154-1.275-0.434c-0.406-0.406-0.35-1.135-0.35-1.793V3.88H79.96V3.39
			h1.163V1.484h0.574V3.39h2.199v0.49h-2.199v4.076c0,0.994-0.057,1.723,1.106,1.723c0.519,0,0.868-0.168,0.98-0.21l0.183,0.462
			C83.84,9.987,83.477,10.211,82.748,10.211z"/>
		<path fill="#AAAAAA" d="M91.077,10.197c-1.135,0-1.975-0.378-2.101-0.42V0h0.574v3.922c0.07-0.057,0.826-0.687,1.933-0.687
			c1.85,0,2.941,1.358,2.941,3.404C94.425,8.74,93.038,10.197,91.077,10.197z M91.47,3.768c-1.148,0-1.849,0.658-1.919,0.715v4.916
			c0.098,0.028,0.645,0.267,1.568,0.267c1.653,0,2.704-1.205,2.704-2.998C93.823,4.986,92.94,3.768,91.47,3.768z"/>
		<path fill="#AAAAAA" d="M98.596,10.659c-0.294,0.799-0.603,1.485-0.994,1.877c-0.547,0.547-1.191,0.687-1.695,0.687
			c-0.616,0-1.051-0.168-1.106-0.196l0.168-0.504c0.098,0.028,0.393,0.154,0.925,0.154c0.448,0,0.91-0.154,1.219-0.463
			c0.462-0.462,0.742-1.288,1.008-1.946L95.374,3.39h0.658l2.409,6.079l2.157-6.079h0.631L98.596,10.659z"/>
	</g>
	<g>
		<g>
			<path fill="#00A099" d="M11.713,39.258c-0.394,0-0.747-0.207-0.933-0.539l-4.853-8.4c-0.083-0.166-0.145-0.332-0.145-0.519
				c-0.332,0.041-0.622,0.228-0.788,0.519l-4.853,8.4c-0.187,0.332-0.187,0.747,0,1.078l4.853,8.4
				c0.187,0.332,0.539,0.539,0.933,0.539h9.706c0.394,0,0.747-0.207,0.933-0.539l4.853-8.4c0.124-0.207,0.145-0.436,0.124-0.664
				c-0.145,0.083-0.311,0.124-0.477,0.124H11.713L11.713,39.258z"/>
			<path fill="#C6C6C5" d="M10.78,20.841c0.187-0.332,0.539-0.539,0.933-0.539h9.354c0.166,0,0.332,0.041,0.477,0.124
				c0.021-0.228-0.021-0.456-0.124-0.664l-4.853-8.4c-0.187-0.332-0.539-0.539-0.933-0.539H5.947c-0.394,0-0.747,0.207-0.933,0.539
				l-4.853,8.4c-0.187,0.332-0.187,0.747,0,1.078l4.853,8.4c0.166,0.29,0.456,0.477,0.788,0.519c0-0.187,0.041-0.353,0.145-0.519
				L10.78,20.841z"/>
			<path fill="#364D55" d="M26.853,29.241L22,20.841c-0.104-0.187-0.27-0.332-0.456-0.415c-0.021,0.145-0.062,0.29-0.124,0.415
				l-4.853,8.4c-0.187,0.332-0.539,0.539-0.933,0.539c0.394,0,0.747,0.207,0.933,0.539l4.853,8.4
				c0.083,0.124,0.104,0.27,0.124,0.415c0.187-0.083,0.353-0.228,0.456-0.415l4.853-8.4C27.04,29.988,27.04,29.573,26.853,29.241z"
				/>
			<path fill="#002628" d="M16.566,30.319c-0.187-0.332-0.539-0.539-0.933-0.539H5.947c-0.062,0-0.104,0.021-0.145,0.021
				c0,0.187,0.041,0.353,0.145,0.519l4.853,8.4c0.187,0.332,0.539,0.539,0.933,0.539h9.333c0.166,0,0.332-0.041,0.477-0.124
				c-0.021-0.145-0.062-0.29-0.124-0.415L16.566,30.319z"/>
			<path fill="#2A3C42" d="M15.633,29.78c0.394,0,0.747-0.207,0.933-0.539l4.853-8.4c0.083-0.124,0.104-0.27,0.124-0.415
				c-0.145-0.083-0.311-0.124-0.477-0.124h-9.354c-0.394,0-0.747,0.207-0.933,0.539l-4.853,8.4
				c-0.083,0.166-0.145,0.332-0.145,0.519c0.041,0,0.104,0.021,0.145,0.021H15.633z"/>
		</g>
		<g>
			<path fill="#364D55" d="M82.768,24.243c0-0.311-0.166-0.456-0.456-0.456H81.4V22.48h1.576c0.913,0,1.286,0.373,1.286,1.286v8.42
				c0,2.468,1.576,4.024,4.003,4.024s4.024-1.556,4.024-4.065v-8.379c0-0.913,0.373-1.286,1.286-1.286h1.576v1.307h-0.913
				c-0.29,0-0.456,0.145-0.456,0.456v8.006c0,3.215-2.198,5.351-5.475,5.351c-3.277,0-5.517-2.136-5.517-5.351v-8.006H82.768z"/>
			<path fill="#364D55" d="M97.701,24.243c0-0.311-0.166-0.456-0.456-0.456h-0.913V22.48h1.576c0.913,0,1.286,0.373,1.286,1.286
				v5.164h1.784c0.56,0,0.996-0.104,1.244-0.539l3.609-5.932h1.701l-3.837,6.243c-0.373,0.622-0.767,0.83-0.767,0.83v0.041
				c0,0,0.353,0.124,0.726,0.85l2.593,5.123c0.207,0.436,0.539,0.477,1.078,0.477h0.415v1.307h-0.788
				c-1.203,0-1.576-0.124-2.053-1.12l-2.717-5.434c-0.228-0.477-0.726-0.56-1.348-0.56h-1.638v7.135h-1.473V24.243H97.701z"/>
			<path fill="#364D55" d="M116.139,22.21c3.443,0,5.206,1.825,5.206,1.825l-0.871,1.099c0,0-1.659-1.535-4.314-1.535
				c-3.339,0-5.911,2.696-5.911,6.263c0,3.671,2.53,6.326,5.89,6.326c2.945,0,4.708-2.178,4.708-2.178v-1.846
				c0-0.311-0.166-0.456-0.456-0.456h-0.913v-1.307h1.473c0.913,0,1.286,0.373,1.286,1.286v5.662h-1.348v-1.12
				c0-0.311,0.021-0.643,0.021-0.643h-0.041c0,0-1.742,2.012-4.874,2.012c-4.065,0-7.28-3.256-7.28-7.736
				C108.693,25.591,111.929,22.21,116.139,22.21z"/>
			<path fill="#364D55" d="M129.205,26.441c2.945,0,4.459,2.261,4.459,4.915c0,0.249-0.041,0.726-0.041,0.726h-8.172
				c0.041,2.696,1.929,4.231,4.127,4.231c1.95,0,3.194-1.307,3.194-1.307l0.705,1.078c0,0-1.556,1.535-3.961,1.535
				c-3.152,0-5.579-2.281-5.579-5.579C123.958,28.536,126.343,26.441,129.205,26.441z M132.192,30.921
				c-0.083-2.198-1.431-3.277-3.007-3.277c-1.763,0-3.298,1.141-3.671,3.277H132.192z"/>
			<path fill="#364D55" d="M136.547,28.411c0-0.29-0.166-0.456-0.456-0.456h-0.892v-1.244h1.473c0.892,0,1.286,0.373,1.286,1.182
				v0.477c0,0.415-0.041,0.767-0.041,0.767h0.041c0.373-0.975,1.742-2.696,4.231-2.696c2.655,0,3.588,1.514,3.588,4.127v5.061
				c0,0.311,0.166,0.456,0.456,0.456h0.892v1.244h-1.514c-0.913,0-1.286-0.373-1.286-1.286v-5.102c0-1.68-0.249-3.152-2.302-3.152
				c-1.825,0-3.381,1.244-3.878,3.007c-0.124,0.436-0.166,0.933-0.166,1.431v5.123h-1.431V28.411z"/>
			<path fill="#364D55" d="M153.264,26.441c2.945,0,4.459,2.261,4.459,4.915c0,0.249-0.041,0.726-0.041,0.726h-8.172
				c0.041,2.696,1.929,4.231,4.127,4.231c1.95,0,3.194-1.307,3.194-1.307l0.705,1.078c0,0-1.555,1.535-3.961,1.535
				c-3.152,0-5.579-2.281-5.579-5.579C148.017,28.536,150.402,26.441,153.264,26.441z M156.25,30.921
				c-0.083-2.198-1.431-3.277-3.007-3.277c-1.763,0-3.298,1.141-3.671,3.277H156.25z"/>
			<path fill="#364D55" d="M165.708,30.776h0.601v-0.124c0-2.219-0.809-3.007-2.758-3.007c-0.539,0-2.074,0.145-2.074,0.933v0.684
				h-1.369v-1.016c0-1.473,2.551-1.804,3.464-1.804c3.36,0,4.169,1.804,4.169,4.086v5.102c0,0.311,0.166,0.456,0.456,0.456h0.892
				v1.244h-1.452c-0.913,0-1.265-0.394-1.265-1.265c0-0.456,0.021-0.788,0.021-0.788h-0.041c0.021,0-0.871,2.302-3.547,2.302
				c-1.784,0-3.63-1.037-3.63-3.152C159.195,30.9,163.883,30.776,165.708,30.776z M163.053,36.376c2.033,0,3.256-2.115,3.256-3.961
				v-0.477h-0.622c-1.68,0-5.019,0.041-5.019,2.427C160.668,35.359,161.456,36.376,163.053,36.376z"/>
			<path fill="#364D55" d="M171.805,24.16c0-0.29-0.166-0.456-0.456-0.456h-0.892v-1.244h1.514c0.913,0,1.286,0.373,1.286,1.286
				v11.884c0,0.311,0.166,0.456,0.456,0.456h0.892v1.244h-1.514c-0.913,0-1.286-0.373-1.286-1.286V24.16z"/>
			<path fill="#364D55" d="M181.615,26.441c3.111,0,5.641,2.364,5.641,5.538c0,3.215-2.53,5.641-5.621,5.641
				c-3.111,0-5.641-2.406-5.641-5.641C176.016,28.805,178.525,26.441,181.615,26.441z M181.636,36.313
				c2.261,0,4.127-1.867,4.127-4.335c0-2.406-1.867-4.21-4.127-4.21c-2.281,0-4.148,1.804-4.148,4.21
				C177.488,34.447,179.355,36.313,181.636,36.313z"/>
			<path fill="#364D55" d="M193.188,26.441c2.862,0,3.547,1.825,3.547,1.825h0.041c0,0,0-0.187,0-0.394
				c0-0.767,0.332-1.161,1.203-1.161h1.473v1.244h-0.871c-0.29,0-0.456,0.145-0.456,0.456v8.69c0,3.381-2.51,4.708-5.123,4.708
				c-1.203,0-2.427-0.311-3.464-0.85l0.56-1.203c0,0,1.307,0.747,2.883,0.747c2.074,0,3.733-0.975,3.733-3.339V36.23
				c0-0.394,0.021-0.767,0.021-0.767h-0.041c-0.643,1.161-1.701,1.846-3.339,1.846c-2.862,0-4.749-2.261-4.749-5.455
				S190.326,26.441,193.188,26.441z M196.693,31.813c0-3.111-1.473-4.065-3.36-4.065c-2.074,0-3.277,1.514-3.277,4.044
				c0,2.551,1.369,4.189,3.464,4.189C195.221,35.982,196.693,34.945,196.693,31.813z"/>
			<path fill="#364D55" d="M202.812,40.503c0.933,0,1.576-0.767,1.97-1.742l0.643-1.452l-3.775-8.877
				c-0.166-0.373-0.353-0.477-0.747-0.477h-0.207v-1.244h0.664c0.954,0,1.244,0.207,1.638,1.161l2.738,6.658
				c0.207,0.539,0.373,1.141,0.373,1.141h0.041c0,0,0.145-0.622,0.353-1.141l2.634-6.658c0.353-0.954,0.684-1.161,1.659-1.161h0.664
				v1.244h-0.207c-0.373,0-0.601,0.104-0.747,0.477l-4.604,11.137c-0.56,1.348-1.638,2.219-3.049,2.219
				c-1.473,0-2.302-1.037-2.302-1.037l0.684-1.058C201.215,39.715,201.899,40.503,202.812,40.503z"/>
		</g>
		<g>
			<path fill="#00A099" d="M38.903,25.051v3.111h5.621v2.966h-5.621v6.429h-3.816V22.003h9.727v3.049H38.903z"/>
			<path fill="#00A099" d="M54.334,28.785c-0.062-0.021-0.394-0.083-0.705-0.083c-1.638,0-2.675,0.933-3.111,1.576v7.28h-3.733
				V25.985h3.07v1.535c0.062-0.124,1.493-1.887,3.878-1.887c0.892,0,1.369,0.332,1.431,0.353L54.334,28.785z"/>
			<path fill="#00A099" d="M66.404,32.891h-7.653c0,0.809,0.726,2.364,2.966,2.364c1.556,0,2.758-0.705,2.966-0.809l1.099,2.198
				c-0.145,0.145-2.033,1.286-4.355,1.286c-4.335,0-5.994-3.152-5.994-6.056c0-3.547,2.302-6.201,5.683-6.201
				c3.484,0,5.33,2.447,5.33,6.181C66.446,32.311,66.404,32.601,66.404,32.891z M61.178,28.183c-1.929,0-2.323,1.908-2.364,2.24
				h4.355C63.19,29.967,63.003,28.183,61.178,28.183z"/>
			<path fill="#00A099" d="M79.263,32.891H71.61c0,0.809,0.726,2.364,2.966,2.364c1.556,0,2.758-0.705,2.966-0.809l1.099,2.198
				c-0.145,0.145-2.033,1.286-4.355,1.286c-4.335,0-5.994-3.152-5.994-6.056c0-3.547,2.302-6.201,5.683-6.201
				c3.484,0,5.33,2.447,5.33,6.181C79.305,32.311,79.263,32.601,79.263,32.891z M74.037,28.183c-1.929,0-2.323,1.908-2.364,2.24
				h4.355C76.049,29.967,75.862,28.183,74.037,28.183z"/>
		</g>
	</g>
</g>
</svg>
