<?xml version="1.0" encoding="utf-8"?>
<!-- Generator: Adobe Illustrator 18.0.0, SVG Export Plug-In . SVG Version: 6.00 Build 0)  -->
<!DOCTYPE svg PUBLIC "-//W3C//DTD SVG 1.1//EN" "http://www.w3.org/Graphics/SVG/1.1/DTD/svg11.dtd">
<svg version="1.1" id="Layer_1" xmlns="http://www.w3.org/2000/svg" xmlns:xlink="http://www.w3.org/1999/xlink" x="0px" y="0px"
	 width="287.144px" height="87.153px" viewBox="0 0 287.144 87.153" enable-background="new 0 0 287.144 87.153"
	 xml:space="preserve">
<g>
	<path fill="#00A099" d="M26.925,65.412c-0.906,0-1.716-0.477-2.145-1.24L13.624,44.816c-0.191-0.381-0.334-0.763-0.334-1.192
		c-0.763,0.095-1.43,0.524-1.812,1.192L0.322,64.125c-0.429,0.763-0.429,1.716,0,2.479l11.156,19.309
		c0.429,0.763,1.24,1.24,2.145,1.24h22.313c0.906,0,1.716-0.477,2.145-1.24l11.156-19.309c0.286-0.477,0.334-1.001,0.286-1.526
		c-0.334,0.191-0.715,0.286-1.097,0.286H26.925V65.412z"/>
	<path fill="#A2195B" d="M24.78,23.028c0.429-0.763,1.24-1.24,2.145-1.24h21.502c0.381,0,0.763,0.095,1.097,0.286
		c0.048-0.524-0.048-1.049-0.286-1.526L38.082,1.24C37.653,0.477,36.842,0,35.936,0H13.671c-0.906,0-1.716,0.477-2.145,1.24
		L0.369,20.549c-0.429,0.763-0.429,1.716,0,2.479l11.156,19.309c0.381,0.667,1.049,1.097,1.812,1.192
		c0-0.429,0.095-0.811,0.334-1.192L24.78,23.028z"/>
	<path fill="#364D55" d="M61.729,42.337L50.573,23.028c-0.238-0.429-0.62-0.763-1.049-0.954c-0.048,0.334-0.143,0.667-0.286,0.954
		L38.082,42.337c-0.429,0.763-1.24,1.24-2.145,1.24c0.906,0,1.716,0.477,2.145,1.24l11.156,19.309
		c0.191,0.286,0.238,0.62,0.286,0.954c0.429-0.191,0.811-0.524,1.049-0.954l11.156-19.309C62.158,44.053,62.158,43.1,61.729,42.337z
		"/>
	<path fill="#003033" d="M38.082,44.816c-0.429-0.763-1.24-1.24-2.145-1.24H13.671c-0.143,0-0.238,0.048-0.334,0.048
		c0,0.429,0.095,0.811,0.334,1.192l11.156,19.309c0.429,0.763,1.24,1.24,2.145,1.24h21.454c0.381,0,0.763-0.095,1.097-0.286
		c-0.048-0.334-0.143-0.667-0.286-0.954L38.082,44.816z"/>
	<path fill="#22081E" d="M35.936,43.576c0.906,0,1.716-0.477,2.145-1.24l11.156-19.309c0.191-0.286,0.238-0.62,0.286-0.954
		c-0.334-0.191-0.715-0.286-1.097-0.286H26.925c-0.906,0-1.716,0.477-2.145,1.24L13.624,42.337
		c-0.191,0.381-0.334,0.763-0.334,1.192c0.095,0,0.238,0.048,0.334,0.048H35.936z"/>
	<path fill="#364D55" d="M189.646,29.75h-3.147v-3.004h14.494c5.34,0,9.249,3.242,9.249,8.629c0,3.766-1.907,6.246-4.386,7.438
		v0.095c3.528,0.954,5.769,4.339,5.769,8.486c0,6.103-4.482,9.583-10.203,9.583h-8.82c-2.098,0-2.956-0.858-2.956-2.956
		L189.646,29.75L189.646,29.75z M200.945,41.574c3.48,0,5.817-2.432,5.817-6.007c0-3.528-2.241-5.864-5.864-5.864h-7.867v11.824
		h7.914V41.574z M194.08,57.975h7.295c4.148,0,6.675-2.575,6.675-6.675s-2.718-6.77-6.722-6.77h-8.343v12.348
		C193.031,57.593,193.412,57.975,194.08,57.975z"/>
	<path fill="#364D55" d="M214.104,57.975h1.812c0.667,0,1.001-0.334,1.049-1.049l2.384-30.132h3.48l9.059,19.929
		c0.811,1.764,1.716,4.053,1.716,4.053h0.095c0,0,0.858-2.288,1.669-4.053l9.059-19.929h3.48l2.384,30.132
		c0.048,0.715,0.381,1.049,1.049,1.049h1.859v3.004h-3.29c-2.098,0-2.813-0.858-2.956-2.956l-1.621-20.787
		c-0.143-1.859-0.143-4.768-0.143-4.768h-0.095c0,0-0.906,3.004-1.764,4.768l-8.153,17.402h-3.051l-8.105-17.402
		c-0.763-1.716-1.812-4.863-1.812-4.863h-0.095c0,0,0,3.004-0.143,4.863l-1.621,20.787c-0.143,2.098-0.858,2.956-2.956,2.956h-3.242
		v-3.004H214.104z"/>
	<path fill="#364D55" d="M259.397,29.75h-3.147v-3.004h13.731c10.298,0,17.164,6.293,17.164,17.068
		c0,10.918-6.865,17.116-17.164,17.116H262.4c-2.098,0-2.956-0.858-2.956-2.956V29.75H259.397z M263.878,57.975h5.769
		c8.439,0,13.969-4.958,13.969-14.112c0-9.106-5.578-14.065-13.969-14.065h-6.818v27.128
		C262.782,57.593,263.211,57.975,263.878,57.975z"/>
	<g>
		<path fill="#A2195B" d="M89.429,32.658v7.151h12.92v6.818h-12.92v14.78h-8.772V25.65h22.36v7.008H89.429z"/>
		<path fill="#A2195B" d="M124.901,41.24c-0.143-0.048-0.906-0.191-1.621-0.191c-3.766,0-6.15,2.145-7.151,3.623v16.734h-8.582
			V34.804h7.056v3.528c0.143-0.286,3.433-4.339,8.916-4.339c2.05,0,3.147,0.763,3.29,0.811L124.901,41.24z"/>
		<path fill="#A2195B" d="M152.649,50.68h-17.593c0,1.859,1.669,5.435,6.818,5.435c3.576,0,6.341-1.621,6.818-1.859l2.527,5.054
			c-0.334,0.334-4.672,2.956-10.012,2.956c-9.964,0-13.779-7.247-13.779-13.922c0-8.153,5.292-14.255,13.063-14.255
			c8.01,0,12.253,5.626,12.253,14.208C152.744,49.345,152.649,50.013,152.649,50.68z M140.634,39.858
			c-4.434,0-5.34,4.386-5.435,5.149h10.012C145.259,43.958,144.83,39.858,140.634,39.858z"/>
		<path fill="#A2195B" d="M182.208,50.68h-17.593c0,1.859,1.669,5.435,6.818,5.435c3.576,0,6.341-1.621,6.818-1.859l2.527,5.054
			c-0.334,0.334-4.672,2.956-10.012,2.956c-9.964,0-13.779-7.247-13.779-13.922c0-8.153,5.292-14.255,13.063-14.255
			c8.01,0,12.253,5.626,12.253,14.208C182.303,49.345,182.208,50.013,182.208,50.68z M170.194,39.858
			c-4.434,0-5.34,4.386-5.435,5.149h10.012C174.818,43.958,174.389,39.858,170.194,39.858z"/>
	</g>
</g>
</svg>
