<?xml version="1.0" encoding="utf-8"?>
<!-- Generator: Adobe Illustrator 18.0.0, SVG Export Plug-In . SVG Version: 6.00 Build 0)  -->
<!DOCTYPE svg PUBLIC "-//W3C//DTD SVG 1.1//EN" "http://www.w3.org/Graphics/SVG/1.1/DTD/svg11.dtd">
<svg version="1.1" id="Layer_1" xmlns="http://www.w3.org/2000/svg" xmlns:xlink="http://www.w3.org/1999/xlink" x="0px" y="0px"
	 width="485.837px" height="87.106px" viewBox="0 0 485.837 87.106" enable-background="new 0 0 485.837 87.106"
	 xml:space="preserve">
<g>
	<g>
		<path fill="#00A099" d="M26.911,65.329c-0.905,0-1.715-0.477-2.144-1.239l-11.15-19.299c-0.191-0.381-0.334-0.762-0.334-1.191
			c-0.762,0.095-1.43,0.524-1.811,1.191L0.322,64.09c-0.429,0.762-0.429,1.715,0,2.478l11.15,19.299
			c0.429,0.762,1.239,1.239,2.144,1.239h22.301c0.905,0,1.715-0.477,2.144-1.239l11.15-19.299c0.286-0.477,0.334-1.001,0.286-1.525
			c-0.334,0.191-0.715,0.286-1.096,0.286L26.911,65.329L26.911,65.329z"/>
		<path fill="#C6C6C5" d="M24.767,23.015c0.429-0.762,1.239-1.239,2.144-1.239h21.491c0.381,0,0.762,0.095,1.096,0.286
			c0.048-0.524-0.048-1.048-0.286-1.525L38.061,1.239C37.632,0.477,36.822,0,35.917,0H13.664c-0.905,0-1.715,0.477-2.144,1.239
			L0.369,20.538c-0.429,0.762-0.429,1.715,0,2.478l11.15,19.299c0.381,0.667,1.048,1.096,1.811,1.191
			c0-0.429,0.095-0.81,0.334-1.191L24.767,23.015z"/>
		<path fill="#364D55" d="M61.696,42.314l-11.15-19.299c-0.238-0.429-0.619-0.762-1.048-0.953c-0.048,0.334-0.143,0.667-0.286,0.953
			l-11.15,19.299c-0.429,0.762-1.239,1.239-2.144,1.239c0.905,0,1.715,0.477,2.144,1.239l11.15,19.299
			c0.191,0.286,0.238,0.619,0.286,0.953c0.429-0.191,0.81-0.524,1.048-0.953l11.15-19.299
			C62.125,44.029,62.125,43.076,61.696,42.314z"/>
		<path fill="#002628" d="M38.061,44.792c-0.429-0.762-1.239-1.239-2.144-1.239H13.664c-0.143,0-0.238,0.048-0.334,0.048
			c0,0.429,0.095,0.81,0.334,1.191l11.15,19.299c0.429,0.762,1.239,1.239,2.144,1.239h21.443c0.381,0,0.762-0.095,1.096-0.286
			c-0.048-0.334-0.143-0.667-0.286-0.953L38.061,44.792z"/>
		<path fill="#2A3C42" d="M35.917,43.553c0.905,0,1.715-0.477,2.144-1.239l11.15-19.299c0.191-0.286,0.238-0.619,0.286-0.953
			c-0.334-0.191-0.715-0.286-1.096-0.286H26.911c-0.905,0-1.715,0.477-2.144,1.239l-11.15,19.299
			c-0.191,0.381-0.334,0.762-0.334,1.191c0.095,0,0.238,0.048,0.334,0.048H35.917z"/>
	</g>
	<g>
		<path fill="#364D55" d="M190.163,30.83c0-0.715-0.381-1.048-1.048-1.048h-2.097V26.78h3.621c2.097,0,2.954,0.858,2.954,2.954
			V49.08c0,5.67,3.621,9.244,9.197,9.244c5.575,0,9.244-3.574,9.244-9.34V29.734c0-2.097,0.858-2.954,2.954-2.954h3.621v3.002
			h-2.097c-0.667,0-1.048,0.334-1.048,1.048v18.393c0,7.386-5.051,12.294-12.58,12.294c-7.529,0-12.675-4.908-12.675-12.294V30.83
			H190.163z"/>
		<path fill="#364D55" d="M224.472,30.83c0-0.715-0.381-1.048-1.048-1.048h-2.097V26.78h3.621c2.097,0,2.954,0.858,2.954,2.954
			v11.865H232c1.287,0,2.287-0.238,2.859-1.239l8.291-13.628h3.907l-8.815,14.343c-0.858,1.43-1.763,1.906-1.763,1.906v0.095
			c0,0,0.81,0.286,1.668,1.954l5.956,11.77c0.477,1.001,1.239,1.096,2.478,1.096h0.953v3.002h-1.811
			c-2.764,0-3.621-0.286-4.717-2.573l-6.242-12.485c-0.524-1.096-1.668-1.287-3.097-1.287h-3.764v16.392h-3.383V30.83H224.472z"/>
		<path fill="#364D55" d="M266.833,26.16c7.91,0,11.96,4.193,11.96,4.193l-2.001,2.525c0,0-3.812-3.526-9.911-3.526
			c-7.672,0-13.581,6.195-13.581,14.391c0,8.434,5.813,14.534,13.533,14.534c6.766,0,10.817-5.003,10.817-5.003v-4.241
			c0-0.715-0.381-1.048-1.048-1.048h-2.097v-3.002h3.383c2.097,0,2.954,0.858,2.954,2.954v13.009h-3.097v-2.573
			c0-0.715,0.048-1.477,0.048-1.477h-0.095c0,0-4.003,4.622-11.198,4.622c-9.34,0-16.725-7.481-16.725-17.774
			C249.727,33.927,257.16,26.16,266.833,26.16z"/>
		<path fill="#364D55" d="M296.853,35.881c6.766,0,10.245,5.194,10.245,11.293c0,0.572-0.095,1.668-0.095,1.668h-18.774
			c0.095,6.195,4.432,9.721,9.483,9.721c4.479,0,7.338-3.002,7.338-3.002l1.62,2.478c0,0-3.574,3.526-9.101,3.526
			c-7.243,0-12.818-5.242-12.818-12.818C284.798,40.694,290.277,35.881,296.853,35.881z M303.715,46.174
			c-0.191-5.051-3.288-7.529-6.909-7.529c-4.05,0-7.577,2.621-8.434,7.529H303.715z"/>
		<path fill="#364D55" d="M313.722,40.408c0-0.667-0.381-1.048-1.048-1.048h-2.049v-2.859h3.383c2.049,0,2.954,0.858,2.954,2.716
			v1.096c0,0.953-0.095,1.763-0.095,1.763h0.095c0.858-2.24,4.003-6.195,9.721-6.195c6.099,0,8.244,3.479,8.244,9.483V56.99
			c0,0.715,0.381,1.048,1.048,1.048h2.049v2.859h-3.479c-2.097,0-2.954-0.858-2.954-2.954V46.221c0-3.86-0.572-7.243-5.289-7.243
			c-4.193,0-7.767,2.859-8.911,6.909c-0.286,1.001-0.381,2.144-0.381,3.288v11.77h-3.288V40.408z"/>
		<path fill="#364D55" d="M352.128,35.881c6.766,0,10.245,5.194,10.245,11.293c0,0.572-0.095,1.668-0.095,1.668h-18.774
			c0.095,6.195,4.432,9.721,9.483,9.721c4.479,0,7.338-3.002,7.338-3.002l1.62,2.478c0,0-3.574,3.526-9.101,3.526
			c-7.243,0-12.818-5.242-12.818-12.818C340.073,40.694,345.553,35.881,352.128,35.881z M358.99,46.174
			c-0.191-5.051-3.288-7.529-6.909-7.529c-4.05,0-7.577,2.621-8.434,7.529H358.99z"/>
		<path fill="#364D55" d="M380.719,45.84h1.382v-0.286c0-5.099-1.858-6.909-6.338-6.909c-1.239,0-4.765,0.334-4.765,2.144v1.572
			h-3.145v-2.335c0-3.383,5.861-4.146,7.958-4.146c7.719,0,9.578,4.146,9.578,9.387v11.722c0,0.715,0.381,1.048,1.048,1.048h2.049
			v2.859h-3.336c-2.097,0-2.907-0.905-2.907-2.907c0-1.048,0.048-1.811,0.048-1.811h-0.095c0.048,0-2.001,5.289-8.148,5.289
			c-4.098,0-8.339-2.383-8.339-7.243C365.757,46.126,376.526,45.84,380.719,45.84z M374.62,58.706c4.67,0,7.481-4.86,7.481-9.101
			v-1.096h-1.43c-3.86,0-11.532,0.095-11.532,5.575C369.14,56.371,370.951,58.706,374.62,58.706z"/>
		<path fill="#364D55" d="M394.728,30.64c0-0.667-0.381-1.048-1.048-1.048h-2.049v-2.859h3.479c2.097,0,2.954,0.858,2.954,2.954
			V56.99c0,0.715,0.381,1.048,1.048,1.048h2.049v2.859h-3.479c-2.097,0-2.954-0.858-2.954-2.954V30.64z"/>
		<path fill="#364D55" d="M417.267,35.881c7.148,0,12.961,5.432,12.961,12.723c0,7.386-5.813,12.961-12.913,12.961
			c-7.148,0-12.961-5.528-12.961-12.961C404.401,41.313,410.167,35.881,417.267,35.881z M417.315,58.563
			c5.194,0,9.483-4.289,9.483-9.959c0-5.528-4.289-9.673-9.483-9.673c-5.242,0-9.53,4.146-9.53,9.673
			C407.785,54.274,412.073,58.563,417.315,58.563z"/>
		<path fill="#364D55" d="M443.856,35.881c6.576,0,8.148,4.193,8.148,4.193h0.095c0,0,0-0.429,0-0.905
			c0-1.763,0.762-2.668,2.764-2.668h3.383v2.859h-2.001c-0.667,0-1.048,0.334-1.048,1.048v19.966c0,7.767-5.766,10.817-11.77,10.817
			c-2.764,0-5.575-0.715-7.958-1.954l1.287-2.764c0,0,3.002,1.715,6.623,1.715c4.765,0,8.577-2.24,8.577-7.672v-2.144
			c0-0.905,0.048-1.763,0.048-1.763h-0.095c-1.477,2.668-3.907,4.241-7.672,4.241c-6.576,0-10.912-5.194-10.912-12.532
			S437.281,35.881,443.856,35.881z M451.909,48.223c0-7.148-3.383-9.34-7.719-9.34c-4.765,0-7.529,3.479-7.529,9.292
			c0,5.861,3.145,9.625,7.958,9.625C448.526,57.801,451.909,55.418,451.909,48.223z"/>
		<path fill="#364D55" d="M465.966,68.188c2.144,0,3.621-1.763,4.527-4.003l1.477-3.336l-8.672-20.395
			c-0.381-0.858-0.81-1.096-1.715-1.096h-0.477v-2.859h1.525c2.192,0,2.859,0.477,3.764,2.668l6.29,15.296
			c0.477,1.239,0.858,2.621,0.858,2.621h0.095c0,0,0.334-1.43,0.81-2.621l6.052-15.296c0.81-2.192,1.572-2.668,3.812-2.668h1.525
			v2.859h-0.477c-0.858,0-1.382,0.238-1.715,1.096l-10.579,25.589c-1.287,3.097-3.764,5.099-7.005,5.099
			c-3.383,0-5.289-2.383-5.289-2.383l1.572-2.43C462.297,66.378,463.87,68.188,465.966,68.188z"/>
	</g>
	<g>
		<path fill="#00A099" d="M89.381,32.689v7.148h12.913v6.814H89.381v14.772h-8.768V25.684h22.348v7.005H89.381z"/>
		<path fill="#00A099" d="M124.833,41.266c-0.143-0.048-0.905-0.191-1.62-0.191c-3.764,0-6.147,2.144-7.148,3.621v16.725h-8.577
			V34.833h7.052v3.526c0.143-0.286,3.431-4.336,8.911-4.336c2.049,0,3.145,0.762,3.288,0.81L124.833,41.266z"/>
		<path fill="#00A099" d="M152.566,50.701h-17.583c0,1.858,1.668,5.432,6.814,5.432c3.574,0,6.338-1.62,6.814-1.858l2.525,5.051
			c-0.334,0.334-4.67,2.954-10.007,2.954c-9.959,0-13.771-7.243-13.771-13.914c0-8.148,5.289-14.248,13.056-14.248
			c8.005,0,12.246,5.623,12.246,14.2C152.662,49.366,152.566,50.033,152.566,50.701z M140.558,39.884
			c-4.432,0-5.337,4.384-5.432,5.146h10.007C145.18,43.982,144.752,39.884,140.558,39.884z"/>
		<path fill="#00A099" d="M182.11,50.701h-17.583c0,1.858,1.668,5.432,6.814,5.432c3.574,0,6.338-1.62,6.814-1.858l2.525,5.051
			c-0.334,0.334-4.67,2.954-10.007,2.954c-9.959,0-13.771-7.243-13.771-13.914c0-8.148,5.289-14.248,13.056-14.248
			c8.005,0,12.246,5.623,12.246,14.2C182.205,49.366,182.11,50.033,182.11,50.701z M170.102,39.884
			c-4.432,0-5.337,4.384-5.432,5.146h10.007C174.724,43.982,174.295,39.884,170.102,39.884z"/>
	</g>
</g>
</svg>
