<?xml version="1.0" encoding="utf-8"?>
<!-- Generator: Adobe Illustrator 18.0.0, SVG Export Plug-In . SVG Version: 6.00 Build 0)  -->
<!DOCTYPE svg PUBLIC "-//W3C//DTD SVG 1.1//EN" "http://www.w3.org/Graphics/SVG/1.1/DTD/svg11.dtd">
<svg version="1.1" id="Layer_1" xmlns="http://www.w3.org/2000/svg" xmlns:xlink="http://www.w3.org/1999/xlink" x="0px" y="0px"
	 width="289.972px" height="87px" viewBox="0 0 289.972 87" enable-background="new 0 0 289.972 87" xml:space="preserve">
<g>
	<g>
		<path fill="#00A099" d="M26.878,65.25c-0.904,0-1.713-0.476-2.142-1.237L13.6,44.737c-0.19-0.381-0.333-0.761-0.333-1.19
			c-0.761,0.095-1.428,0.524-1.809,1.19L0.321,64.013c-0.428,0.761-0.428,1.713,0,2.475l11.137,19.275
			C11.886,86.524,12.695,87,13.6,87h22.274c0.904,0,1.713-0.476,2.142-1.237l11.137-19.275c0.286-0.476,0.333-0.999,0.286-1.523
			c-0.333,0.19-0.714,0.286-1.095,0.286H26.878z"/>
		<path fill="#A2195B" d="M24.736,22.987c0.428-0.761,1.237-1.237,2.142-1.237h21.464c0.381,0,0.761,0.095,1.095,0.286
			c0.048-0.524-0.048-1.047-0.286-1.523L38.015,1.237C37.587,0.476,36.777,0,35.873,0H13.647c-0.904,0-1.713,0.476-2.142,1.237
			L0.369,20.513c-0.428,0.761-0.428,1.713,0,2.475l11.137,19.275c0.381,0.666,1.047,1.095,1.809,1.19
			c0-0.428,0.095-0.809,0.333-1.19L24.736,22.987z"/>
		<path fill="#364D55" d="M61.621,42.263L50.484,22.987c-0.238-0.428-0.619-0.761-1.047-0.952c-0.048,0.333-0.143,0.666-0.286,0.952
			L38.015,42.263c-0.428,0.761-1.237,1.237-2.142,1.237c0.904,0,1.713,0.476,2.142,1.237l11.137,19.275
			c0.19,0.286,0.238,0.619,0.286,0.952c0.428-0.19,0.809-0.524,1.047-0.952l11.137-19.275
			C62.049,43.976,62.049,43.024,61.621,42.263z"/>
		<path fill="#003033" d="M38.015,44.737c-0.428-0.761-1.237-1.237-2.142-1.237H13.647c-0.143,0-0.238,0.048-0.333,0.048
			c0,0.428,0.095,0.809,0.333,1.19l11.137,19.275c0.428,0.761,1.237,1.237,2.142,1.237h21.417c0.381,0,0.761-0.095,1.095-0.286
			c-0.048-0.333-0.143-0.666-0.286-0.952L38.015,44.737z"/>
		<path fill="#22081E" d="M35.873,43.5c0.904,0,1.713-0.476,2.142-1.237l11.137-19.275c0.19-0.286,0.238-0.619,0.286-0.952
			c-0.333-0.19-0.714-0.286-1.095-0.286H26.878c-0.904,0-1.713,0.476-2.142,1.237L13.6,42.263c-0.19,0.381-0.333,0.761-0.333,1.19
			c0.095,0,0.238,0.048,0.333,0.048L35.873,43.5z"/>
	</g>
	<g>
		<path fill="#A2195B" d="M88.844,33.553v6.758h12.279v6.52H88.844v13.992h-8.376V26.842h21.226v6.663h-12.85V33.553z"/>
		<path fill="#A2195B" d="M124.301,60.824l-3.379-7.472c-0.428-0.904-1.38-3.332-2.475-4.426c-0.904-0.904-2.046-0.857-3.189-0.857
			h-0.476v12.803h-8.234V26.842h9.233c4.379,0,8.71-0.286,12.136,3.094c1.475,1.475,2.808,3.665,2.808,6.663
			c0,4.617-2.903,8.138-8.852,8.757c2.046,0.095,3.427,0.809,4.521,1.951c1.523,1.523,2.38,3.712,3.474,6.044l3.379,7.425h-8.947
			V60.824z M121.683,34.457c-1.047-1.047-2.665-1.19-4.95-1.19h-1.999v8.519h2.38c1.999,0,5.568-0.095,5.568-4.426
			C122.73,36.409,122.445,35.219,121.683,34.457z"/>
		<path fill="#A2195B" d="M136.675,60.824V26.842h21.512v6.663h-13.136v6.758h12.327v6.52h-12.327v7.234h13.564v6.758h-21.94V60.824
			z"/>
		<path fill="#A2195B" d="M163.28,60.824V26.842h21.512v6.663h-13.183v6.758h12.327v6.52h-12.327v7.234h13.564v6.758H163.28V60.824z
			"/>
		<path fill="#364D55" d="M192.645,29.698h-3.141V26.7h14.468c5.33,0,9.233,3.236,9.233,8.614c0,3.76-1.904,6.235-4.379,7.425v0.095
			c3.522,0.952,5.759,4.331,5.759,8.472c0,6.092-4.474,9.566-10.185,9.566h-8.805c-2.094,0-2.951-0.857-2.951-2.951L192.645,29.698
			L192.645,29.698z M203.924,41.501c3.474,0,5.806-2.427,5.806-5.997c0-3.522-2.237-5.854-5.854-5.854h-7.853v11.803h7.9V41.501z
			 M197.071,57.825h7.282c4.141,0,6.663-2.57,6.663-6.663s-2.713-6.758-6.711-6.758h-8.329v12.327
			C196.024,57.492,196.404,57.825,197.071,57.825z"/>
		<path fill="#364D55" d="M217.06,57.825h1.809c0.666,0,0.999-0.333,1.047-1.047l2.38-30.079h3.474l9.043,19.894
			c0.809,1.761,1.713,4.045,1.713,4.045h0.095c0,0,0.857-2.284,1.666-4.045l8.995-19.894h3.474l2.38,30.079
			c0.048,0.714,0.381,1.047,1.047,1.047h1.856v2.998h-3.284c-2.094,0-2.808-0.857-2.951-2.951l-1.618-20.751
			c-0.143-1.856-0.143-4.759-0.143-4.759h-0.095c0,0-0.904,2.998-1.761,4.759l-8.138,17.371h-3.046l-8.091-17.371
			c-0.761-1.713-1.809-4.854-1.809-4.854h-0.095c0,0,0,2.998-0.143,4.854l-1.618,20.751c-0.143,2.094-0.857,2.951-2.951,2.951
			h-3.236V57.825z"/>
		<path fill="#364D55" d="M262.273,29.698h-3.141V26.7h13.707c10.28,0,17.133,6.282,17.133,17.038
			c0,10.899-6.853,17.086-17.133,17.086h-7.567c-2.094,0-2.951-0.857-2.951-2.951V29.698H262.273z M266.747,57.825h5.759
			c8.424,0,13.945-4.95,13.945-14.088c0-9.09-5.568-14.04-13.945-14.04H265.7v27.08C265.652,57.492,266.081,57.825,266.747,57.825z"
			/>
	</g>
</g>
</svg>
