<?xml version="1.0" encoding="utf-8"?>
<!-- Generator: Adobe Illustrator 18.1.0, SVG Export Plug-In . SVG Version: 6.00 Build 0)  -->
<!DOCTYPE svg PUBLIC "-//W3C//DTD SVG 1.1//EN" "http://www.w3.org/Graphics/SVG/1.1/DTD/svg11.dtd">
<svg version="1.1" id="Layer_1" xmlns="http://www.w3.org/2000/svg" xmlns:xlink="http://www.w3.org/1999/xlink" x="0px" y="0px"
	 width="760.451px" height="297.377px" viewBox="0 0 760.451 297.377" enable-background="new 0 0 760.451 297.377"
	 xml:space="preserve">
<g>
	<path opacity="0.21" fill="#364D55" d="M141.345,254.613c2.444-4.27,2.426-9.514-0.05-13.766L78.532,133.061
		c-2.479-4.246-7.029-6.85-11.945-6.837L0,126.472v170.905h116.866L141.345,254.613z"/>
	<path opacity="0.07" fill="#231F20" d="M297.795,260.32c-2.479-4.246-7.029-6.85-11.945-6.837l-124.728,0.464
		c-4.92,0.018-9.451,2.658-11.895,6.928l-20.894,36.501h191.039L297.795,260.32z"/>
	<path opacity="0.14" fill="#364D55" d="M150.08,237.189c2.479,4.246,7.029,6.85,11.945,6.837l124.728-0.464
		c4.92-0.018,9.451-2.659,11.895-6.928l61.961-108.245c2.444-4.269,2.426-9.514-0.05-13.765L297.795,6.837
		c-2.479-4.246-7.029-6.85-11.945-6.837L161.123,0.464c-4.92,0.018-9.451,2.658-11.895,6.928L87.267,115.636
		c-2.444,4.27-2.426,9.515,0.05,13.766L150.08,237.189z"/>
	<path opacity="0.16" fill="#364D55" d="M582.423,254.613c2.444-4.27,2.426-9.514-0.05-13.766L519.61,133.061
		c-2.479-4.246-7.029-6.85-11.945-6.837l-124.728,0.464c-4.92,0.018-9.451,2.658-11.895,6.928L309.082,241.86
		c-2.444,4.271-2.426,9.515,0.05,13.767l24.311,41.75h224.502L582.423,254.613z"/>
	<path opacity="0.07" fill="#231F20" d="M738.873,260.32c-2.479-4.246-7.029-6.85-11.945-6.837l-124.728,0.464
		c-4.92,0.018-9.451,2.658-11.895,6.928l-20.894,36.501h191.039L738.873,260.32z"/>
</g>
</svg>
